<!DOCTYPE svg PUBLIC "-//W3C//DTD SVG 1.1//EN" "http://www.w3.org/Graphics/SVG/1.1/DTD/svg11.dtd">
<!-- Uploaded to: SVG Repo, www.svgrepo.com, Transformed by: SVG Repo Mixer Tools -->
<svg width="800px" height="800px" viewBox="-2.4 -2.4 28.80 28.80" fill="none" xmlns="http://www.w3.org/2000/svg">
<g id="SVGRepo_bgCarrier" stroke-width="0">
<path transform="translate(-2.4, -2.4), scale(0.8999999999999999)" d="M16,31.882384939917497C18.692714371656898,31.315342375307203,19.730455561215244,27.95818642513834,22.042811656104668,26.466456808942716C24.195850441327618,25.07750476655043,27.578269644661834,25.637774918356385,28.992122535263753,23.501005443079134C30.39576974958222,21.37965990455089,29.468490546308523,18.494007895742655,28.968233600258827,16C28.533582026780483,13.833064658647903,27.177502988492005,12.082396801645283,26.29527923772073,10.056017760719573C25.286821244019887,7.73969138625634,25.557751082582357,4.497321784603428,23.393173261412556,3.194648282073759C21.236383823574982,1.8966619386266643,18.516806421109244,3.907020576259334,16,3.8601733180029054C13.41895629133942,3.8121303615893307,10.68338513211393,1.6283750638666346,8.446196577378686,2.916428681632194C6.209617739147818,4.204131257216884,6.831695815913849,7.728100724920322,5.471979838003783,9.92164472543767C4.050233786062266,12.215257930813866,0.8767726932776245,13.356204738701564,0.33606021106243134,15.999999999999996C-0.21070601369715225,18.673394829235924,1.2578859820509594,21.36075693896959,2.6527812132168407,23.706020359482075C4.03659704580717,26.032655780113306,5.976068645126578,27.94967019158439,8.284434857645198,29.363750835665897C10.631383284785734,30.801466534968178,13.306761983684916,32.44953777571475,16,31.882384939917497" fill="#7ed0ec" strokewidth="0"/>
</g>
<g id="SVGRepo_tracerCarrier" stroke-linecap="round" stroke-linejoin="round"/>
<g id="SVGRepo_iconCarrier"> <path d="M15 21H9V12.6C9 12.2686 9.26863 12 9.6 12H14.4C14.7314 12 15 12.2686 15 12.6V21Z" stroke="#ffffff" stroke-width="1.5" stroke-linecap="round" stroke-linejoin="round"/> <path d="M20.4 21H15V18.1C15 17.7686 15.2686 17.5 15.6 17.5H20.4C20.7314 17.5 21 17.7686 21 18.1V20.4C21 20.7314 20.7314 21 20.4 21Z" stroke="#ffffff" stroke-width="1.5" stroke-linecap="round" stroke-linejoin="round"/> <path d="M9 21V16.1C9 15.7686 8.73137 15.5 8.4 15.5H3.6C3.26863 15.5 3 15.7686 3 16.1V20.4C3 20.7314 3.26863 21 3.6 21H9Z" stroke="#ffffff" stroke-width="1.5" stroke-linecap="round" stroke-linejoin="round"/> <path d="M10.8056 5.11325L11.7147 3.1856C11.8314 2.93813 12.1686 2.93813 12.2853 3.1856L13.1944 5.11325L15.2275 5.42427C15.4884 5.46418 15.5923 5.79977 15.4035 5.99229L13.9326 7.4917L14.2797 9.60999C14.3243 9.88202 14.0515 10.0895 13.8181 9.96099L12 8.96031L10.1819 9.96099C9.94851 10.0895 9.67568 9.88202 9.72026 9.60999L10.0674 7.4917L8.59651 5.99229C8.40766 5.79977 8.51163 5.46418 8.77248 5.42427L10.8056 5.11325Z" stroke="#ffffff" stroke-width="1.5" stroke-linecap="round" stroke-linejoin="round"/> </g>
</svg>