<?xml version="1.0" encoding="utf-8"?>
<!-- Generator: Adobe Illustrator 23.0.1, SVG Export Plug-In . SVG Version: 6.00 Build 0)  -->
<svg width="300" height="140" viewBox="0 0 300 140" fill="none" xmlns="http://www.w3.org/2000/svg">
<path d="M274.578 6.20142C272.488 6.24971 268.988 6.53946 267.418 7.97856C266.288 7.39906 265.158 7.18657 264.048 7.18657C263.478 7.18657 262.928 7.24452 262.378 7.33145L261.368 7.1576C260.038 7.20589 259.308 7.7371 258.308 8.28763L257.888 8.38422L256.018 8.46148C255.378 8.25865 254.698 8.17173 253.988 8.17173C253.798 8.17173 253.588 8.17173 253.388 8.19105L251.148 8.16207L249.088 8.80918C248.518 8.43251 247.958 8.29729 247.398 8.29729C246.528 8.29729 245.658 8.63534 244.758 9.00236L243.288 9.03133L241.398 9.77503C240.238 9.71707 238.938 9.37903 237.668 9.37903C237.498 9.37903 237.328 9.37903 237.158 9.39835C235.238 9.55288 233.498 10.229 231.938 10.229L231.638 10.2097L230.148 9.93922L230.318 10.0165L229.688 10.0261C227.878 10.3256 226.778 11.6488 224.918 11.6488C224.798 11.6488 224.668 11.6391 224.548 11.6294C223.208 11.5039 222.578 10.5284 221.308 10.5284C221.148 10.5284 220.978 10.5477 220.788 10.5767C219.788 10.6057 220.018 11.6391 219.058 11.7067C218.488 11.3011 217.838 11.1465 217.158 11.1465C215.768 11.1465 214.278 11.813 213.218 12.4021C212.608 11.8516 211.968 11.6584 211.318 11.6584C209.858 11.6584 208.368 12.6436 207.148 12.7208C207.118 12.7208 207.078 12.7208 207.048 12.7208C206.568 12.7208 206.048 12.5373 205.548 12.3635C205.038 12.18 204.538 11.9965 204.058 11.9965C204.048 11.9965 204.038 11.9965 204.028 11.9965C202.748 12.0254 201.558 12.8174 200.248 12.914C200.208 12.914 200.168 12.914 200.108 12.914C199.348 12.914 198.548 12.5277 197.768 12.5277C195.958 12.547 194.408 13.5515 192.598 13.5515C192.588 13.5515 192.578 13.5515 192.568 13.5515C192.558 13.5515 192.538 13.5515 192.538 13.5515C190.768 13.5515 189.648 12.9044 188.018 12.7595C186.958 13.1555 186.208 13.8219 185.098 14.1889C184.448 13.6577 183.838 13.4549 183.268 13.4549C181.568 13.4549 180.188 15.2127 178.918 15.4928C178.698 15.5314 178.468 15.5604 178.238 15.5604C177.558 15.5604 176.838 15.3962 176.088 15.232C175.338 15.0775 174.558 14.9133 173.798 14.9133C173.448 14.9133 173.108 14.9423 172.768 15.0292C171.888 15.2513 171.548 15.8985 170.428 16.2075C169.838 15.6087 169.058 15.3383 168.258 15.3383C167.298 15.3383 166.308 15.7343 165.568 16.4104C164.918 15.9564 164.248 15.7826 163.568 15.7826C161.688 15.7826 159.648 17.0478 157.488 17.0961C157.448 17.0961 157.408 17.0961 157.358 17.0961C156.428 17.0961 155.448 16.874 154.488 16.6518C153.538 16.42 152.598 16.2075 151.768 16.2075C151.538 16.2075 151.308 16.2268 151.098 16.2655C149.938 16.4973 149.278 17.6466 148.178 17.6949C148.138 17.6949 148.098 17.6949 148.058 17.6949C147.538 17.6949 146.998 17.5307 146.458 17.3665C145.918 17.2023 145.378 17.0382 144.888 17.0382C144.278 17.0382 143.728 17.2893 143.328 18.1102C142.578 17.3859 141.838 17.1251 141.138 17.1251C139.458 17.1251 137.918 18.6028 136.468 18.6897C136.438 18.6897 136.418 18.6897 136.388 18.6897C135.978 18.6897 135.548 18.5062 135.108 18.3131C134.668 18.1199 134.228 17.9267 133.808 17.9267C133.778 17.9267 133.768 17.9267 133.738 17.9267C132.238 18.004 130.768 19.5107 129.018 19.5107H128.998C128.128 19.501 127.268 18.7477 126.378 18.7477C126.348 18.7477 126.318 18.7574 126.288 18.7574C125.338 18.8056 124.338 19.5204 123.308 19.5976C123.258 19.5976 123.208 19.5976 123.158 19.5976C122.748 19.5976 122.318 19.5107 121.888 19.4141C121.468 19.3272 121.048 19.2306 120.658 19.2306C120.578 19.2306 120.508 19.2403 120.428 19.2499C119.278 19.3851 118.378 20.2737 117.268 20.3027C117.238 20.3027 117.228 20.3027 117.198 20.3027C116.648 20.3027 116.088 20.1192 115.548 19.9453C115.018 19.7618 114.488 19.5976 114.028 19.5976C113.938 19.5976 113.838 19.6073 113.738 19.6266C112.808 19.8101 112.198 21.2202 111.268 21.2202C111.258 21.2202 111.238 21.2202 111.238 21.2202C110.658 20.8146 109.698 20.6407 108.658 20.6407C107.018 20.6407 105.188 21.085 104.368 21.7998C103.398 20.9112 102.308 20.4089 101.238 20.4089C100.198 20.4089 99.1784 20.8822 98.2784 21.9156C97.7184 21.3168 97.1584 21.0947 96.6184 21.0947C95.2284 21.0947 93.8784 22.4758 92.6384 22.5917C92.5884 22.5917 92.5384 22.6014 92.4884 22.6014C91.6584 22.6014 90.8084 21.9543 89.9284 21.8384C89.5684 21.7901 89.2184 21.7708 88.8884 21.7708C86.7484 21.7708 85.0484 22.6111 82.9484 23.4127C82.2584 22.8815 81.5584 22.7076 80.8084 22.7076C79.5384 22.7076 78.1384 23.2195 76.4284 23.3644C76.2984 23.3741 76.1784 23.3837 76.0384 23.3837C75.6484 23.3837 75.2484 23.3354 74.8684 23.2968C74.4884 23.2582 74.1184 23.2099 73.7884 23.2099C73.6384 23.2099 73.4984 23.2195 73.3684 23.2389C72.1484 23.4224 71.2584 24.3882 70.2284 24.4848C70.1584 24.4944 70.0884 24.4944 70.0184 24.4944C69.4984 24.4944 68.9784 24.3109 68.4884 24.1371C67.9784 23.9536 67.4984 23.7797 67.0184 23.7797C66.9884 23.7797 66.9384 23.7894 66.9084 23.7894C65.7984 23.857 64.8684 24.8325 63.5684 25.0546C63.4184 25.0836 63.2684 25.0836 63.1084 25.0836C62.5684 25.0836 61.9984 24.9581 61.4184 24.8422C60.8484 24.7166 60.2884 24.6007 59.7684 24.6007C59.6584 24.6007 59.5584 24.6103 59.4584 24.62C58.5584 24.7166 57.6584 25.5376 56.7084 25.6438C56.6184 25.6535 56.5184 25.6535 56.4284 25.6535C55.9284 25.6535 55.3984 25.5279 54.8684 25.412C54.3284 25.2864 53.7784 25.1705 53.2484 25.1705C53.1684 25.1705 53.0884 25.1705 53.0084 25.1802C51.7684 25.2768 50.5884 26.0012 49.4284 26.0688C49.3584 26.0688 49.2884 26.0784 49.2184 26.0784C48.6684 26.0784 48.1184 25.9529 47.5784 25.837C47.0284 25.7114 46.4884 25.5955 45.9584 25.5955C45.8784 25.5955 45.7984 25.5955 45.7184 25.6052C44.4484 25.7017 43.3584 26.4358 41.9484 26.7159C41.3384 26.8318 40.8084 26.8801 40.3184 26.8801C38.7584 26.8801 37.6784 26.4261 36.4284 26.3875C36.3484 26.3875 36.2684 26.3875 36.1884 26.3875C33.8784 26.3875 31.7384 27.2664 29.6784 28.1453C28.6784 27.4982 27.0884 27.1698 25.4084 27.1698C24.2984 27.1698 23.1484 27.3147 22.1084 27.6045C20.6084 30.0577 20.8784 34.1818 23.2484 35.7658C21.5584 37.4754 22.1484 40.3536 23.7984 41.812C22.3384 43.9948 22.6284 46.9309 24.4384 48.8336C22.5084 50.4852 24.4484 53.1606 25.5484 54.4355C23.7484 57.5552 25.4384 61.1385 25.9784 63.64C26.4984 66.0063 25.4184 67.9476 25.7684 70.3333C25.9284 71.4536 26.7684 72.4291 26.8784 73.5785C26.9784 74.5347 26.4884 75.5971 26.5384 76.5533C26.6184 78.06 27.6584 79.3639 27.7084 80.5808C27.7484 81.4501 27.0784 82.329 27.1384 83.1789C27.2184 84.4635 28.3384 85.8543 28.3184 87.2065C28.2884 88.4718 27.4684 89.37 27.5884 90.4131C27.7184 91.4852 28.8184 92.3834 28.8984 93.639C28.9584 94.6628 28.0984 95.7639 28.1884 97.0291C28.3484 99.3858 29.0884 101.569 28.8084 103.858C29.6284 104.534 29.8684 105.277 29.8484 106.098C29.8484 106.098 29.2484 108.02 29.3584 109.006C29.2384 109.672 29.1784 109.827 29.2684 110.561C29.3784 111.478 30.0184 111.478 29.8984 113.197C29.7184 114.182 30.8884 114.888 30.6184 116.22C28.7884 118.258 30.4684 120.808 31.6184 122.817C29.8184 124.527 30.6684 127.376 32.1884 129.056C30.7184 131.307 31.6484 134.291 32.4684 136.696C33.0584 136.947 33.6884 137.063 34.3184 137.063H34.3984C36.4884 137.054 38.6784 135.933 40.0584 135.074C41.1784 135.653 42.3184 135.856 43.4184 135.856C45.6384 135.856 47.7784 135.035 49.5884 134.658C50.1984 134.533 50.7884 134.484 51.3584 134.484C52.1984 134.484 53.0184 134.591 53.7784 134.697C54.5384 134.793 55.2484 134.9 55.9284 134.9C56.1984 134.9 56.4684 134.88 56.7284 134.842C57.8384 134.668 58.7684 133.886 59.8884 133.789C59.9784 133.779 60.0784 133.77 60.1784 133.77C60.6384 133.77 61.1084 133.847 61.5884 133.934C62.0684 134.011 62.5484 134.098 63.0284 134.098C63.1484 134.098 63.2684 134.088 63.3784 134.079C64.7084 133.953 65.9284 133.016 67.1484 132.968C67.1684 132.968 67.1784 132.968 67.1984 132.968C67.6484 132.968 68.0684 133.103 68.4884 133.258C68.8984 133.393 69.3184 133.538 69.7384 133.538C69.7684 133.538 69.8084 133.538 69.8384 133.538C70.9984 133.47 72.4184 132.427 73.8084 132.408C74.9684 132.408 76.0084 133.113 77.0784 133.113C77.1584 133.113 77.2484 133.103 77.3284 133.094C78.4984 132.968 79.4984 131.896 80.6684 131.828C80.6984 131.828 80.7384 131.828 80.7684 131.828C81.2884 131.828 81.8284 132.002 82.3484 132.176C82.8684 132.36 83.3884 132.524 83.8984 132.524C83.9284 132.524 83.9584 132.524 83.9884 132.524C84.9184 132.495 85.9784 131.964 86.9884 131.877C87.1484 131.867 87.2984 131.857 87.4484 131.857C87.9184 131.857 88.3884 131.906 88.8284 131.944C89.2584 131.993 89.6784 132.031 90.0884 132.031C90.4184 132.031 90.7384 132.002 91.0584 131.915C91.8284 131.722 92.5584 130.834 93.3884 130.737C93.4484 130.727 93.5184 130.727 93.5784 130.727C94.4584 130.727 95.6584 131.326 96.6984 131.432C97.0684 131.461 97.4284 131.481 97.7484 131.481C99.9184 131.481 101.098 130.727 103.078 129.906C103.898 130.409 104.908 130.708 105.908 130.708C106.958 130.708 107.988 130.38 108.758 129.626C109.518 130.389 110.338 130.708 111.138 130.708C112.418 130.708 113.658 129.897 114.578 128.738C115.228 129.134 116.168 129.298 117.168 129.298C118.888 129.298 120.808 128.805 121.848 128.12C122.498 128.883 123.138 129.143 123.778 129.143C125.018 129.143 126.298 128.187 127.728 128.013C127.808 128.004 127.898 127.994 127.978 127.994C128.448 127.994 128.918 128.129 129.398 128.264C129.868 128.4 130.348 128.525 130.828 128.525C130.898 128.525 130.968 128.516 131.028 128.516C132.108 128.438 133.108 127.704 134.208 127.656C134.238 127.656 134.258 127.656 134.288 127.656C134.678 127.656 135.088 127.743 135.498 127.839C135.908 127.926 136.288 128.023 136.648 128.023C136.728 128.023 136.818 128.013 136.888 128.004C137.848 127.868 138.668 126.912 139.628 126.796C139.748 126.777 139.868 126.767 139.988 126.767C140.648 126.767 141.338 126.98 142.018 127.183C142.698 127.385 143.368 127.588 143.998 127.588C144.128 127.588 144.248 127.579 144.378 127.559C145.228 127.424 146.038 126.429 146.908 126.362C146.938 126.362 146.978 126.362 147.008 126.362C148.028 126.362 149.068 127.463 150.068 127.472C150.088 127.472 150.098 127.472 150.118 127.472C151.288 127.472 151.868 126.613 153.008 126.236C153.928 125.937 155.088 125.773 156.128 125.773C156.158 125.773 156.188 125.773 156.208 125.773C158.378 125.782 160.028 126.458 161.888 126.458C162.238 126.458 162.608 126.429 162.978 126.381C163.708 125.531 164.918 125.203 166.158 125.203C167.268 125.203 168.408 125.463 169.238 125.85C169.848 125.251 170.418 125.067 171.008 125.067C171.438 125.067 171.868 125.164 172.338 125.261C172.798 125.357 173.268 125.454 173.778 125.454C173.948 125.454 174.118 125.444 174.298 125.425C175.418 125.28 175.998 124.295 177.238 124.189C177.278 124.179 177.328 124.179 177.378 124.179C178.218 124.179 179.128 124.729 179.938 124.749C179.958 124.749 179.968 124.749 179.978 124.749C181.368 124.749 182.518 123.966 183.918 123.822C184.038 123.802 184.158 123.802 184.278 123.802C184.638 123.802 185.008 123.841 185.388 123.889C185.768 123.928 186.148 123.976 186.538 123.976C186.748 123.976 186.968 123.957 187.178 123.928C187.948 123.812 188.618 123.406 189.358 123.358C189.458 123.348 189.558 123.348 189.658 123.348C190.138 123.348 190.618 123.426 191.098 123.503C191.568 123.58 192.048 123.667 192.518 123.667C192.628 123.667 192.738 123.657 192.848 123.648C194.748 123.493 196.358 122.122 198.198 122.015C198.238 122.006 198.278 122.006 198.328 122.006C199.228 122.006 200.188 122.556 201.098 122.556C201.108 122.556 201.118 122.556 201.118 122.556C202.408 122.556 203.708 121.909 205.108 121.822C206.838 121.735 208.408 121.639 210.358 121.378C210.648 121.339 210.898 121.33 211.128 121.33C211.698 121.33 212.118 121.417 212.508 121.513C212.898 121.61 213.258 121.697 213.688 121.697C213.878 121.697 214.078 121.677 214.298 121.639C215.208 121.475 215.948 120.75 216.858 120.634C216.998 120.615 217.128 120.605 217.268 120.605C217.728 120.605 218.198 120.683 218.668 120.769C219.128 120.856 219.608 120.943 220.058 120.943C220.228 120.943 220.398 120.924 220.568 120.905C221.348 120.789 222.108 119.987 222.918 119.929C222.958 119.92 222.998 119.92 223.038 119.92C223.478 119.92 223.728 120.122 223.988 120.325C224.238 120.528 224.508 120.731 224.938 120.731C224.988 120.731 225.038 120.731 225.098 120.721C225.978 120.644 228.438 119.736 229.278 119.582C229.468 119.553 229.628 119.533 229.778 119.533C230.118 119.533 230.398 119.601 230.718 119.668C231.028 119.736 231.368 119.804 231.848 119.804C232.018 119.804 232.198 119.794 232.408 119.775C232.408 119.775 232.948 119.939 233.778 119.939C234.338 119.939 235.018 119.862 235.758 119.63C236.428 119.408 236.848 119.34 237.188 119.34C237.788 119.34 238.118 119.562 239.028 119.601L239.508 119.524C240.518 119.282 241.698 118.529 242.818 118.345C242.968 118.316 243.118 118.307 243.278 118.307C243.818 118.307 244.398 118.442 244.958 118.558C245.528 118.683 246.088 118.799 246.618 118.799C246.718 118.799 246.828 118.79 246.928 118.78C247.898 118.664 248.858 117.814 249.888 117.737C249.928 117.737 249.968 117.727 250.008 117.727C250.458 117.727 250.938 117.862 251.418 117.998C251.898 118.133 252.388 118.268 252.868 118.268C252.908 118.268 252.948 118.268 252.988 118.268C254.308 118.21 255.628 117.418 256.978 117.341C257.058 117.331 257.118 117.331 257.198 117.331C257.788 117.331 258.358 117.457 258.908 117.573C259.448 117.688 259.988 117.804 260.528 117.804C260.648 117.804 260.768 117.795 260.878 117.785C262.078 117.669 263.088 116.964 264.438 116.703C265.028 116.587 265.558 116.539 266.038 116.539C267.588 116.539 268.698 116.983 269.958 117.022C270.038 117.022 270.118 117.022 270.208 117.022C272.488 117.022 274.678 116.153 276.728 115.264C277.728 115.911 279.318 116.24 281.008 116.24C282.118 116.24 283.268 116.095 284.298 115.805C284.528 115.148 284.648 114.231 284.668 113.217V112.705C284.638 110.676 284.148 108.474 283.148 107.644C284.838 105.925 284.258 103.046 282.598 101.588C283.998 99.2699 283.978 96.2178 281.968 94.5759C282.758 93.1464 282.208 91.4755 281.378 90.2972C283.248 87.3321 281.508 83.7585 280.968 81.2956C280.448 78.9582 281.498 76.9493 281.168 74.5926C281.008 73.5109 280.168 72.4581 280.058 71.3474C279.968 70.4009 280.458 69.3674 280.398 68.3823C280.318 66.9432 279.268 65.62 279.228 64.3547C279.188 63.4179 279.868 62.4906 279.788 61.5538C279.668 60.2306 278.598 59.0619 278.628 57.7194C278.648 56.4928 279.508 55.4883 279.338 54.3196C279.168 53.2958 278.098 52.359 278.048 51.2869C277.988 50.2631 278.808 49.22 278.788 48.2735C278.768 47.3269 278.178 46.3031 278.098 45.1828C277.988 43.7437 278.448 42.3335 278.148 41.2518C277.938 40.5081 277.028 39.8127 276.928 39.0014C276.748 37.5719 277.828 35.9107 277.718 34.2108C277.658 33.4092 277.498 32.8007 277.278 32.2695C277.668 30.6469 276.268 28.9373 276.298 27.363C276.328 26.4648 277.088 25.7018 277.088 24.7359C277.068 23.2968 276.448 22.8622 275.968 21.4907C277.038 19.8874 276.418 17.0092 275.428 15.4445C277.298 14.2565 276.048 12.2959 275.808 10.6926C275.558 9.1086 276.598 6.5298 274.578 6.20142Z" fill="#8DD7F7"/>
<path d="M239.499 119.62L239.019 119.698L239.479 119.659L239.499 119.62Z" fill="#8DD7F7"/>
<path d="M234.318 115.409C235.328 115.158 236.508 114.414 237.628 114.231C238.908 114.018 240.488 114.801 241.728 114.675C242.708 114.559 243.658 113.709 244.688 113.632C245.658 113.564 246.738 114.202 247.788 114.163C249.108 114.105 250.428 113.313 251.768 113.236C253.188 113.159 254.398 113.825 255.678 113.69C256.868 113.564 257.888 112.869 259.238 112.608C261.708 112.125 263.108 112.879 264.758 112.927C267.128 112.994 269.398 112.087 271.518 111.169C273.178 112.241 276.488 112.434 279.098 111.71C279.828 109.672 279.558 104.872 277.958 103.549C279.648 101.839 279.058 98.9608 277.408 97.5024C278.808 95.1843 278.798 92.1226 276.778 90.4904C277.568 89.0513 277.018 87.39 276.188 86.2117C278.058 83.2465 276.318 79.6729 275.778 77.21C275.268 74.8631 276.328 72.8638 275.988 70.5071C275.828 69.4157 274.978 68.3629 274.878 67.2619C274.788 66.3154 275.278 65.2819 275.218 64.2967C275.138 62.8576 274.098 61.5248 274.038 60.2692C274.008 59.3227 274.688 58.4051 274.608 57.4683C274.478 56.145 273.418 54.9764 273.438 53.6339C273.468 52.4072 274.338 51.4028 274.148 50.2341C273.998 49.2006 272.918 48.2734 272.858 47.2014C272.798 46.1776 273.628 45.1345 273.608 44.1879C273.578 43.2318 272.998 42.2176 272.918 41.0972C272.808 39.6581 273.268 38.2577 272.968 37.1663C272.768 36.4226 271.848 35.7272 271.748 34.9159C271.578 33.4864 272.658 31.8155 272.538 30.1253C272.478 29.314 272.308 28.7055 272.098 28.184C272.488 26.5613 271.088 24.8518 271.118 23.2775C271.148 22.3889 271.908 21.6259 271.908 20.66C271.888 19.2209 271.268 18.7767 270.798 17.4148C271.858 15.8019 271.238 12.9237 270.248 11.359C272.118 10.1807 270.868 8.22001 270.628 6.60706C270.378 4.89752 271.418 2.32839 269.398 2C267.308 2.05795 263.808 2.3477 262.238 3.7868C260.528 2.91755 258.818 2.87891 257.188 3.13003L256.188 2.95618C254.858 3.00447 254.118 3.53568 253.128 4.08621L252.698 4.17314L250.828 4.2504C250.008 3.98963 249.128 3.91236 248.198 3.97997L245.958 3.951L243.888 4.59811C242.418 3.64192 241.048 4.20212 239.568 4.79128L238.098 4.82025L236.208 5.57361C234.898 5.506 233.398 5.08103 231.968 5.19693C230.048 5.35147 228.308 6.02756 226.748 6.02756L226.448 5.99858L224.958 5.72815L225.128 5.80541L224.498 5.81507C222.568 6.14346 221.438 7.63085 219.358 7.42802C217.848 7.2928 217.248 6.05653 215.598 6.3656C214.588 6.39457 214.828 7.43768 213.868 7.49563C212.138 6.25935 209.598 7.31213 208.028 8.18138C206.038 6.39458 203.718 8.40352 201.958 8.50011C200.958 8.55806 199.828 7.76607 198.838 7.78539C197.558 7.81436 196.368 8.60635 195.058 8.70293C194.238 8.75122 193.398 8.30694 192.578 8.3166C190.758 8.32626 189.188 9.34039 187.388 9.34039C185.608 9.34039 184.468 8.69328 182.838 8.53874C181.778 8.94439 181.028 9.60117 179.918 9.96819C177.338 7.88197 175.438 10.9147 173.738 11.2817C171.968 11.6488 169.678 10.3062 167.588 10.8181C166.698 11.0403 166.368 11.6874 165.248 11.9965C163.938 10.6926 161.738 10.9533 160.388 12.2089C157.968 10.4994 155.268 12.8271 152.318 12.8947C150.168 12.943 147.708 11.7164 145.928 12.0544C144.768 12.2765 144.118 13.4356 143.008 13.4838C141.318 13.5611 139.248 11.7164 138.158 13.8895C135.598 11.4169 133.358 14.3531 131.298 14.469C130.438 14.5173 129.458 13.6674 128.578 13.7156C127.078 13.7929 125.598 15.3093 123.838 15.29C122.938 15.29 122.048 14.4883 121.128 14.5366C120.178 14.5946 119.178 15.3093 118.148 15.3769C117.208 15.4445 116.128 14.9326 115.268 15.0389C114.128 15.1741 113.218 16.0626 112.108 16.0916C110.868 16.1206 109.578 15.2127 108.588 15.4059C107.648 15.5894 107.038 17.0381 106.088 16.9995C104.588 15.9467 100.558 16.4103 99.2183 17.579C97.2983 15.8308 94.9483 15.599 93.1283 17.7046C91.1883 15.5894 89.2083 18.2068 87.4883 18.371C86.6083 18.4579 85.7183 17.7335 84.7783 17.6176C82.1383 17.2796 80.2283 18.2744 77.7983 19.192C75.9283 17.7625 73.9983 18.9119 71.2783 19.1533C70.1883 19.2403 69.0683 18.8926 68.2183 19.0181C67.0083 19.2016 66.1083 20.1771 65.0783 20.2641C63.8983 20.3703 62.8183 19.501 61.7583 19.559C60.6383 19.6266 59.7183 20.6118 58.4183 20.8242C57.1183 21.0367 55.5483 20.2544 54.3083 20.3896C53.4083 20.4862 52.5083 21.3072 51.5583 21.4037C50.4083 21.5293 49.0883 20.8436 47.8483 20.9305C46.6083 21.0271 45.4183 21.7611 44.2683 21.8287C43.0083 21.906 41.7683 21.2685 40.5583 21.3555C39.2783 21.452 38.1983 22.1764 36.7883 22.4565C34.2583 22.9588 32.9083 22.1764 31.2683 22.1378C28.8583 22.0702 26.6483 22.9877 24.5083 23.8956C22.8483 22.8235 19.5383 22.6304 16.9283 23.3451C15.4383 25.7983 15.6883 29.9321 18.0683 31.5064C16.3783 33.2256 16.9683 36.1038 18.6183 37.5623C17.1583 39.7451 17.4483 42.6812 19.2583 44.5743C17.3183 46.2355 19.2583 48.9012 20.3783 50.1858C18.5783 53.3055 20.2583 56.8887 20.8083 59.3806C21.3283 61.7662 20.2483 63.6979 20.5983 66.0836C20.7583 67.1943 21.5983 68.1794 21.7083 69.3288C21.7983 70.2753 21.3083 71.3474 21.3683 72.3036C21.4483 73.8103 22.4983 75.1142 22.5383 76.3215C22.5683 77.1907 21.9083 78.0793 21.9683 78.9292C22.0483 80.2138 23.1783 81.595 23.1483 82.9471C23.1183 84.2221 22.2983 85.1203 22.4183 86.1537C22.5483 87.2355 23.6483 88.124 23.7283 89.3796C23.7783 90.4034 22.9283 91.5045 23.0183 92.7794C23.1783 95.1264 23.9183 97.3189 23.6383 99.6079C24.4583 100.284 24.6983 101.028 24.6883 101.839C24.6883 101.839 24.0883 103.761 24.1783 104.756C24.0683 105.413 23.9983 105.567 24.0883 106.301C24.1983 107.228 24.8483 107.219 24.7283 108.948C24.5583 109.923 25.7183 110.638 25.4483 111.971C23.6083 114.009 25.2983 116.558 26.4583 118.567C24.6583 120.277 25.5083 123.116 27.0283 124.807C25.5583 127.057 26.4883 130.042 27.3183 132.446C29.8583 133.538 33.0883 131.944 34.8983 130.824C38.2383 132.543 41.7083 130.959 44.4283 130.409C47.2383 129.839 49.5683 130.901 51.5683 130.592C52.6883 130.418 53.6083 129.636 54.7283 129.539C55.8083 129.443 57.0583 129.935 58.2183 129.829C59.5383 129.704 60.7583 128.767 61.9883 128.718C62.9283 128.689 63.7783 129.327 64.6783 129.279C65.8283 129.211 67.2583 128.168 68.6483 128.148C69.8883 128.139 71.0083 128.96 72.1683 128.834C73.3383 128.709 74.3283 127.637 75.5083 127.569C76.6183 127.511 77.7683 128.322 78.8183 128.274C79.7483 128.245 80.8083 127.704 81.8183 127.627C83.3683 127.521 84.6683 127.994 85.8883 127.675C86.6683 127.482 87.3883 126.593 88.2283 126.497C89.1083 126.4 90.4083 127.096 91.5483 127.202C94.4283 127.482 95.6483 126.613 97.9183 125.676C99.5983 126.7 102.078 126.864 103.598 125.386C105.568 127.357 107.918 126.391 109.418 124.507C111.188 125.579 115.058 124.971 116.688 123.889C118.588 126.12 120.388 124.044 122.578 123.793C123.658 123.657 124.778 124.391 125.878 124.295C126.948 124.218 127.958 123.474 129.058 123.435C129.948 123.406 130.968 123.908 131.738 123.793C132.698 123.657 133.518 122.701 134.488 122.576C136.048 122.392 137.778 123.58 139.238 123.358C140.088 123.223 140.898 122.228 141.778 122.16C142.828 122.083 143.898 123.252 144.928 123.271C146.138 123.29 146.708 122.411 147.868 122.035C148.818 121.726 150.008 121.561 151.078 121.571C153.658 121.59 155.498 122.537 157.848 122.17C159.248 120.567 162.328 120.837 164.108 121.639C165.758 120.006 167.158 121.484 169.158 121.214C170.278 121.069 170.858 120.084 172.098 119.977C172.978 119.9 173.938 120.528 174.788 120.538C176.198 120.557 177.368 119.755 178.778 119.61C179.798 119.504 180.918 119.9 182.048 119.726C182.818 119.61 183.488 119.205 184.238 119.147C185.408 119.07 186.548 119.543 187.718 119.446C189.618 119.292 191.228 117.92 193.068 117.814C193.998 117.756 195.008 118.355 195.968 118.355C197.258 118.355 198.568 117.708 199.968 117.621C201.698 117.524 203.268 117.437 205.218 117.177C207.198 116.916 207.688 117.698 209.158 117.437C210.068 117.263 210.808 116.549 211.708 116.433C212.928 116.269 214.238 116.887 215.428 116.713C216.198 116.587 216.978 115.786 217.778 115.728C218.818 115.651 218.898 116.626 219.958 116.529C220.838 116.443 223.298 115.544 224.138 115.39C225.288 115.177 225.638 115.728 227.258 115.573C227.258 115.573 228.748 116.018 230.598 115.428C232.438 114.83 232.428 115.341 233.868 115.399L234.318 115.409Z" fill="white"/>
<path d="M234.298 115.457L234.318 115.419L233.838 115.496L234.298 115.457ZM235.318 111.884C233.228 111.913 231.668 112.425 230.338 113.004C228.698 113.709 226.648 113.506 224.858 113.217C223.068 112.927 222.918 112.743 220.948 113.419C218.978 114.086 216.838 114.211 216.598 114.308L216.508 114.347L214.408 114.163L212.918 114.076C210.978 114.298 209.928 115.148 209.128 115.322C207.928 115.573 206.378 114.327 201.768 114.714C200.478 114.82 197.148 116.075 195.918 116.085C194.858 116.095 193.828 115.506 192.818 115.564C190.848 115.67 189.238 117.09 187.268 117.215C186.408 117.273 185.568 116.829 184.798 116.829C183.498 116.829 182.488 117.408 181.198 117.534C179.878 117.65 178.598 117.196 177.328 117.466L175.358 118.22C173.148 118.451 170.458 116.877 168.708 118.983C167.368 118.326 164.958 118.142 163.858 119.398C161.818 117.428 158.468 119.736 155.358 119.91C152.398 120.084 149.708 118.954 147.008 119.833C146.058 120.142 145.628 120.885 144.478 121.03C143.348 119.668 140.178 119.553 138.988 121.108C136.838 120.509 133.118 119.668 131.498 121.542C130.078 121.146 126.978 120.837 125.848 122.025C124.028 121.175 121.028 121.475 119.388 122.576C118.578 122.537 117.898 121.639 116.858 121.61C115.418 121.561 113.768 122.962 111.678 122.827L109.388 122.238C107.868 122.363 106.768 123.87 105.888 124.102C104.668 122.904 101.928 122.923 100.818 124.333C98.4683 121.977 96.2183 124.71 93.1483 124.99C91.2383 125.154 88.8083 123.773 87.1683 124.121C86.3883 124.285 85.8383 125.27 85.0483 125.473C84.3383 125.666 83.0783 125.319 81.7883 125.357C80.6183 125.396 79.3983 126.014 78.5883 126.014C77.7083 126.024 76.8383 125.29 76.0783 125.251C74.3583 125.164 73.5083 126.439 71.9183 126.584C70.5683 126.719 69.7183 125.618 67.5983 125.975C66.6983 126.12 65.9183 126.883 64.8383 126.999C63.5783 127.134 62.2183 126.14 60.9183 126.342C60.1183 126.468 59.3683 127.357 58.5783 127.521C57.3283 127.781 55.8983 127.154 54.4883 127.289C53.2183 127.405 52.0383 128.255 50.9283 128.371C48.8283 128.602 46.9883 127.559 43.9983 128.177C43.0483 128.361 42.3683 128.979 41.4383 129.172C38.7583 129.752 36.6883 128.419 34.4683 128.583C32.7483 128.718 31.4383 130.399 29.7383 130.36C27.4483 128.264 30.3983 124.024 27.7383 121.677C28.2983 120.103 29.2083 119.321 28.7783 117.457C28.5283 116.327 27.2883 115.844 27.1383 115.042C26.9483 114.018 28.0683 113.304 28.0983 112.212L27.1883 110.396C26.6483 109.218 27.1483 109.044 27.4283 108.204C27.7083 107.354 27.2183 106.185 27.2183 106.185L26.6483 104.823C26.8583 103.887 27.2083 102.959 27.3683 102.1V102.08L27.3983 100.728C27.2283 99.9846 26.1983 99.4147 25.9883 98.6807C25.7383 97.7631 26.2683 95.7445 25.9883 94.1605L25.4183 92.4413C25.4183 91.5721 26.1783 90.7898 26.2183 90.0171C26.3083 88.3269 24.9883 87.5252 24.8283 85.9992C24.6983 84.7146 25.8783 83.7681 25.4583 81.6239C25.2883 80.7836 24.5283 80.0786 24.4183 79.1514C24.2783 77.8861 25.3083 76.6016 25.0983 75.3653C24.9583 74.5733 24.0483 73.8972 23.8783 73.1052C23.6083 71.8883 24.2583 70.4781 24.1283 69.1549C24.0083 67.9186 23.1283 66.8079 23.0083 65.7165C22.7583 63.5917 23.8683 61.7373 23.1983 58.8108C23.0383 58.125 22.3883 57.42 22.1783 56.541C21.3383 52.9288 24.4783 48.7564 20.8983 46.8247C21.6183 45.685 21.9883 45.4339 21.8983 44.3811C21.7783 43.0096 20.1083 42.3045 19.9883 41.2035C19.8583 40.0541 21.6283 38.9241 21.4683 37.3401C21.3283 35.901 20.1683 35.6016 19.3683 34.375C19.6783 32.8876 20.8583 32.4723 20.6983 31.1104C20.5083 29.4202 17.3983 28.2129 18.7883 25.779C20.6583 24.3592 22.5083 26.3006 24.3283 26.2909C26.1683 26.2716 28.1383 24.5137 31.0983 24.5331C32.6683 24.5524 34.9383 25.2961 37.4283 24.7842C38.5083 24.562 39.5183 23.8473 40.5883 23.7314C41.7583 23.6059 43.1783 24.2626 44.4983 24.1854C45.8983 24.1081 47.2983 23.2485 48.4883 23.2582C49.4083 23.2678 50.3083 24.0212 51.1983 24.0212C52.4583 23.9922 53.5183 22.8429 54.7483 22.7366C56.4483 22.5821 57.7683 23.4513 59.2583 23.1423C60.1283 22.9588 60.9983 22.0412 61.7983 21.9446C63.1283 21.7901 64.3683 22.8235 65.9183 22.5821C66.9283 22.4179 67.3083 21.9929 68.4583 21.3844C71.3283 22.3986 75.3583 19.6363 77.2383 21.8287C79.6983 21.5969 81.0183 20.0709 83.3783 19.9357C85.9283 19.7811 88.7983 22.0412 90.6483 19.3175C92.1683 20.351 94.7983 20.2061 95.8783 18.6801C96.8083 18.7284 97.9783 20.0226 99.4483 19.955C100.938 19.8777 102.298 18.6704 104.028 18.7767C106.028 18.9022 107.988 20.0226 109.238 17.946C111.008 18.4579 114.068 18.8443 115.498 17.4148C117.098 18.1778 120.048 17.7142 121.558 16.9029C123.108 17.9267 124.448 17.7625 126.658 17.0671L128.808 16.0916C129.698 16.053 130.658 16.9029 131.528 16.845C132.768 16.7677 133.718 15.8985 134.648 15.4059C135.788 15.1644 136.798 16.3234 137.988 16.3041C138.688 16.2848 139.568 15.3866 140.538 15.2996C141.328 15.2417 142.618 16.0626 144.048 15.7922C145.048 15.6087 145.888 15.0292 146.568 14.4014C148.468 14.7394 149.958 15.2996 152.138 15.3093C154.218 15.3093 156.038 14.102 157.928 14.0247C159.498 13.9668 161.638 15.4735 162.758 13.4259C163.548 13.8315 164.428 14.4497 165.488 14.3821C166.388 14.3145 167.158 13.3969 168.238 13.1651C170.108 12.7595 172.278 13.9088 173.978 13.6674C175.398 13.4645 176.558 12.3442 177.468 11.8033C178.338 12.0061 179.068 12.4311 179.968 12.3731C181.008 12.3152 181.868 11.5039 182.928 11.3397C183.988 11.1755 185.008 11.7453 186.438 11.8323C188.528 11.9578 190.538 10.8278 192.438 10.7409L194.718 11.1369C196.318 11.1562 197.628 10.1903 198.908 10.1903C199.868 10.1903 200.708 10.9244 201.618 10.9437C202.768 10.9727 203.838 9.96819 205.178 9.86195C206.298 9.77502 207.588 10.625 208.498 10.567C209.628 10.4897 210.458 9.7557 211.438 9.33073C213.028 10.0358 215.108 10.0648 216.488 8.90577C218.688 10.1614 223.278 10.4125 224.968 8.19104C226.408 8.80918 227.848 8.42284 229.548 8.04616L230.428 8.49045L232.318 7.72744C233.648 7.58256 234.948 8.57738 236.248 8.37455L237.078 8.02685L238.778 7.82402L240.028 7.19622C240.868 7.30246 241.748 7.53427 242.678 7.44734L243.798 7.16725L244.008 7.18656C244.958 7.21554 246.238 6.64569 247.498 6.35594C248.548 6.43321 249.628 6.67467 250.858 6.73262L252.338 7.07067L254.908 5.84404L256.728 5.42873C258.928 5.33215 260.938 6.38492 262.898 6.12414C264.718 5.89234 266.298 3.73851 268.248 4.49186C268.428 6.2497 267.968 8.12343 269.078 9.13756C266.788 10.5767 268.758 12.3635 268.968 14.6525C269.058 15.6956 268.338 16.8546 268.448 17.8398C268.528 18.738 269.408 19.4817 269.478 20.3027C269.568 21.2685 268.358 22.3213 268.548 25.3057C268.548 25.3057 268.948 26.571 269.598 28.126L269.768 28.522L270.158 30.1736C270.338 32.0763 268.908 34.3943 269.258 35.9397C269.428 36.693 270.448 37.2339 270.668 37.9872C270.918 38.8855 270.408 40.7399 270.648 42.3142L271.228 44.2266C271.228 45.0958 270.468 45.8299 270.428 46.6508C270.338 48.2831 271.658 49.162 271.808 50.6687C271.948 51.9919 270.808 52.7743 271.178 54.8508C271.338 55.7587 272.118 56.5024 272.238 57.5069C272.378 58.7914 271.348 60.0277 271.558 61.3026C271.688 62.0753 272.608 62.7707 272.778 63.5531C273.028 64.7024 272.388 66.1222 272.528 67.513C272.658 68.7976 273.568 70.0145 273.668 71.1446C273.858 73.0956 272.838 74.8727 273.448 77.6543C273.638 78.5236 274.278 79.2576 274.498 80.3104C275.168 83.4301 272.778 86.3759 274.848 88.5297C272.568 90.7801 275.968 92.2482 276.148 93.9191C276.288 95.1457 274.508 96.2178 274.658 97.7824C274.798 99.1829 275.888 99.4727 276.758 100.748C276.488 102.167 275.348 102.583 275.408 103.819C275.478 105.21 277.848 106.765 277.168 109.759C275.048 110.696 273.718 108.88 271.998 108.822C269.928 108.754 267.548 110.686 264.838 110.609C262.938 110.561 261.438 109.788 258.708 110.338C257.688 110.541 256.708 111.266 255.548 111.391C254.358 111.526 252.938 110.86 251.638 110.937C249.038 111.082 247.098 112.782 245.138 111.092C243.808 111.063 242.628 112.28 241.388 112.396C239.678 112.55 238.378 111.681 236.878 111.99C235.988 111.903 235.318 111.884 235.318 111.884ZM234.318 115.409C235.328 115.158 236.508 114.414 237.628 114.231C238.908 114.018 240.488 114.801 241.728 114.675C242.708 114.559 243.658 113.709 244.688 113.632C245.658 113.564 246.738 114.202 247.788 114.163C249.108 114.105 250.428 113.313 251.768 113.236C253.188 113.159 254.398 113.825 255.678 113.69C256.868 113.564 257.888 112.869 259.238 112.608C261.708 112.125 263.108 112.879 264.758 112.927C267.128 112.994 269.398 112.087 271.518 111.169C273.178 112.241 276.488 112.434 279.098 111.71C279.828 109.672 279.558 104.872 277.958 103.549C279.648 101.839 279.058 98.9608 277.408 97.5024C278.808 95.1843 278.798 92.1226 276.778 90.4904C277.568 89.0513 277.018 87.39 276.188 86.2117C278.058 83.2465 276.318 79.6729 275.778 77.21C275.268 74.8631 276.328 72.8638 275.988 70.5071C275.828 69.4157 274.978 68.3629 274.878 67.2619C274.788 66.3154 275.278 65.2819 275.218 64.2967C275.138 62.8576 274.098 61.5248 274.038 60.2692C274.008 59.3227 274.688 58.4051 274.608 57.4683C274.478 56.145 273.418 54.9764 273.438 53.6339C273.468 52.4072 274.338 51.4028 274.148 50.2341C273.998 49.2006 272.918 48.2734 272.858 47.2014C272.798 46.1776 273.628 45.1345 273.608 44.1879C273.578 43.2318 272.998 42.2176 272.918 41.0972C272.808 39.6581 273.268 38.2577 272.968 37.1663C272.768 36.4226 271.848 35.7272 271.748 34.9159C271.578 33.4864 272.658 31.8155 272.538 30.1253C272.478 29.314 272.308 28.7055 272.098 28.184C272.488 26.5613 271.088 24.8518 271.118 23.2775C271.148 22.3889 271.908 21.6259 271.908 20.66C271.888 19.2209 271.268 18.7767 270.798 17.4148C271.858 15.8019 271.238 12.9237 270.248 11.359C272.118 10.1807 270.868 8.22001 270.628 6.60706C270.378 4.89752 271.418 2.32839 269.398 2C267.308 2.05795 263.808 2.3477 262.238 3.7868C260.528 2.91755 258.818 2.87891 257.188 3.13003L256.188 2.95618C254.858 3.00447 254.118 3.53568 253.128 4.08621L252.698 4.17314L250.828 4.2504C250.008 3.98963 249.128 3.91236 248.198 3.97997L245.958 3.951L243.888 4.59811C242.418 3.64192 241.048 4.20212 239.568 4.79128L238.098 4.82025L236.208 5.57361C234.898 5.506 233.398 5.08103 231.968 5.19693C230.048 5.35147 228.308 6.02756 226.748 6.02756L226.448 5.99858L224.958 5.72815L225.128 5.80541L224.498 5.81507C222.568 6.14346 221.438 7.63085 219.358 7.42802C217.848 7.2928 217.248 6.05653 215.598 6.3656C214.588 6.39457 214.828 7.43768 213.868 7.49563C212.138 6.25935 209.598 7.31213 208.028 8.18138C206.038 6.39458 203.718 8.40352 201.958 8.50011C200.958 8.55806 199.828 7.76607 198.838 7.78539C197.558 7.81436 196.368 8.60635 195.058 8.70293C194.238 8.75122 193.398 8.30694 192.578 8.3166C190.758 8.32626 189.188 9.34039 187.388 9.34039C185.608 9.34039 184.468 8.69328 182.838 8.53874C181.778 8.94439 181.028 9.60117 179.918 9.96819C177.338 7.88197 175.438 10.9147 173.738 11.2817C171.968 11.6488 169.678 10.3062 167.588 10.8181C166.698 11.0403 166.368 11.6874 165.248 11.9965C163.938 10.6926 161.738 10.9533 160.388 12.2089C157.968 10.4994 155.268 12.8271 152.318 12.8947C150.168 12.943 147.708 11.7164 145.928 12.0544C144.768 12.2765 144.118 13.4356 143.008 13.4838C141.318 13.5611 139.248 11.7164 138.158 13.8895C135.598 11.4169 133.358 14.3531 131.298 14.469C130.438 14.5173 129.458 13.6674 128.578 13.7156C127.078 13.7929 125.598 15.3093 123.838 15.29C122.938 15.29 122.048 14.4883 121.128 14.5366C120.178 14.5946 119.178 15.3093 118.148 15.3769C117.208 15.4445 116.128 14.9326 115.268 15.0389C114.128 15.1741 113.218 16.0626 112.108 16.0916C110.868 16.1206 109.578 15.2127 108.588 15.4059C107.648 15.5894 107.038 17.0381 106.088 16.9995C104.588 15.9467 100.558 16.4103 99.2183 17.579C97.2983 15.8308 94.9483 15.599 93.1283 17.7046C91.1883 15.5894 89.2083 18.2068 87.4883 18.371C86.6083 18.4579 85.7183 17.7335 84.7783 17.6176C82.1383 17.2796 80.2283 18.2744 77.7983 19.192C75.9283 17.7625 73.9983 18.9119 71.2783 19.1533C70.1883 19.2403 69.0683 18.8926 68.2183 19.0181C67.0083 19.2016 66.1083 20.1771 65.0783 20.2641C63.8983 20.3703 62.8183 19.501 61.7583 19.559C60.6383 19.6266 59.7183 20.6118 58.4183 20.8242C57.1183 21.0367 55.5483 20.2544 54.3083 20.3896C53.4083 20.4862 52.5083 21.3072 51.5583 21.4037C50.4083 21.5293 49.0883 20.8436 47.8483 20.9305C46.6083 21.0271 45.4183 21.7611 44.2683 21.8287C43.0083 21.906 41.7683 21.2685 40.5583 21.3555C39.2783 21.452 38.1983 22.1764 36.7883 22.4565C34.2583 22.9588 32.9083 22.1764 31.2683 22.1378C28.8583 22.0702 26.6483 22.9877 24.5083 23.8956C22.8483 22.8235 19.5383 22.6304 16.9283 23.3451C15.4383 25.7983 15.6883 29.9321 18.0683 31.5064C16.3783 33.2256 16.9683 36.1038 18.6183 37.5623C17.1583 39.7451 17.4483 42.6812 19.2583 44.5743C17.3183 46.2355 19.2583 48.9012 20.3783 50.1858C18.5783 53.3055 20.2583 56.8887 20.8083 59.3806C21.3283 61.7662 20.2483 63.6979 20.5983 66.0836C20.7583 67.1943 21.5983 68.1794 21.7083 69.3288C21.7983 70.2753 21.3083 71.3474 21.3683 72.3036C21.4483 73.8103 22.4983 75.1142 22.5383 76.3215C22.5683 77.1907 21.9083 78.0793 21.9683 78.9292C22.0483 80.2138 23.1783 81.595 23.1483 82.9471C23.1183 84.2221 22.2983 85.1203 22.4183 86.1537C22.5483 87.2355 23.6483 88.124 23.7283 89.3796C23.7783 90.4034 22.9283 91.5045 23.0183 92.7794C23.1783 95.1264 23.9183 97.3189 23.6383 99.6079C24.4583 100.284 24.6983 101.028 24.6883 101.839C24.6883 101.839 24.0883 103.761 24.1783 104.756C24.0683 105.413 23.9983 105.567 24.0883 106.301C24.1983 107.228 24.8483 107.219 24.7283 108.948C24.5583 109.923 25.7183 110.638 25.4483 111.971C23.6083 114.009 25.2983 116.558 26.4583 118.567C24.6583 120.277 25.5083 123.116 27.0283 124.807C25.5583 127.057 26.4883 130.042 27.3183 132.446C29.8583 133.538 33.0883 131.944 34.8983 130.824C38.2383 132.543 41.7083 130.959 44.4283 130.409C47.2383 129.839 49.5683 130.901 51.5683 130.592C52.6883 130.418 53.6083 129.636 54.7283 129.539C55.8083 129.443 57.0583 129.935 58.2183 129.829C59.5383 129.704 60.7583 128.767 61.9883 128.718C62.9283 128.689 63.7783 129.327 64.6783 129.279C65.8283 129.211 67.2583 128.168 68.6483 128.148C69.8883 128.139 71.0083 128.96 72.1683 128.834C73.3383 128.709 74.3283 127.637 75.5083 127.569C76.6183 127.511 77.7683 128.322 78.8183 128.274C79.7483 128.245 80.8083 127.704 81.8183 127.627C83.3683 127.521 84.6683 127.994 85.8883 127.675C86.6683 127.482 87.3883 126.593 88.2283 126.497C89.1083 126.4 90.4083 127.096 91.5483 127.202C94.4283 127.482 95.6483 126.613 97.9183 125.676C99.5983 126.7 102.078 126.864 103.598 125.386C105.568 127.357 107.918 126.391 109.418 124.507C111.188 125.579 115.058 124.971 116.688 123.889C118.588 126.12 120.388 124.044 122.578 123.793C123.658 123.657 124.778 124.391 125.878 124.295C126.948 124.218 127.958 123.474 129.058 123.435C129.948 123.406 130.968 123.908 131.738 123.793C132.698 123.657 133.518 122.701 134.488 122.576C136.048 122.392 137.778 123.58 139.238 123.358C140.088 123.223 140.898 122.228 141.778 122.16C142.828 122.083 143.898 123.252 144.928 123.271C146.138 123.29 146.708 122.411 147.868 122.035C148.818 121.726 150.008 121.561 151.078 121.571C153.658 121.59 155.498 122.537 157.848 122.17C159.248 120.567 162.328 120.837 164.108 121.639C165.758 120.006 167.158 121.484 169.158 121.214C170.278 121.069 170.858 120.084 172.098 119.977C172.978 119.9 173.938 120.528 174.788 120.538C176.198 120.557 177.368 119.755 178.778 119.61C179.798 119.504 180.918 119.9 182.048 119.726C182.818 119.61 183.488 119.205 184.238 119.147C185.408 119.07 186.548 119.543 187.718 119.446C189.618 119.292 191.228 117.92 193.068 117.814C193.998 117.756 195.008 118.355 195.968 118.355C197.258 118.355 198.568 117.708 199.968 117.621C201.698 117.524 203.268 117.437 205.218 117.177C207.198 116.916 207.688 117.698 209.158 117.437C210.068 117.263 210.808 116.549 211.708 116.433C212.928 116.269 214.238 116.887 215.428 116.713C216.198 116.587 216.978 115.786 217.778 115.728C218.818 115.651 218.898 116.626 219.958 116.529C220.838 116.443 223.298 115.544 224.138 115.39C225.288 115.177 225.638 115.728 227.258 115.573C227.258 115.573 228.748 116.018 230.598 115.428C232.438 114.83 232.428 115.341 233.868 115.399L234.318 115.409Z" fill="#231F20"/>
<path d="M105.356 86.9711L96.8584 87.6887L97.9149 99.3599L106.413 98.6423L105.356 86.9711Z" fill="white"/>
<path d="M62.928 91.823L58.818 106.465C57.998 109.285 57.448 112.183 57.048 115.061C55.918 114.965 55.148 114.926 54.038 115.022C52.878 115.119 51.678 115.322 50.528 115.621C49.138 110.927 42.158 92.8951 37.168 82.6475C38.798 82.7634 40.678 82.6571 42.348 82.5123C43.908 82.377 45.608 82.0873 46.958 81.8265C48.478 86.8103 49.378 89.3794 52.198 96.9613C53.878 101.433 54.458 102.814 55.158 104.427L58.008 94.3631C59.318 89.7754 60.428 85.1683 61.138 80.6385C62.518 80.7158 63.588 80.7255 64.488 80.6482C65.398 80.5709 66.298 80.4067 67.338 80.117C67.758 81.4015 68.108 82.406 69.018 84.6468C70.838 89.0607 76.108 100.651 77.068 102.727L80.028 88.1818C81.318 81.7299 81.358 81.0828 81.368 78.9193C82.438 78.9386 83.568 79.0352 84.628 78.9483C85.688 78.8614 86.588 78.6392 87.278 78.4268C86.828 79.7403 86.758 79.9914 85.148 86.4239L80.778 103.935C80.298 105.895 79.248 111.14 78.928 113.226C77.858 113.168 76.928 113.1 75.868 113.197C74.758 113.294 73.658 113.487 72.568 113.767C71.118 110.116 70.038 107.199 68.258 103.374L62.928 91.823Z" fill="#231F20"/>
<path d="M49.6684 117.109L49.3184 115.96C47.9384 111.304 40.9184 93.1851 36.0284 83.179L35.1084 81.2956L37.2584 81.4405C38.6584 81.5274 40.1684 81.4695 42.2384 81.2956C43.4684 81.1991 44.9784 80.9672 46.7184 80.6389L47.8584 80.4167L48.1884 81.4888C49.6784 86.3953 50.5484 88.9161 53.3984 96.5559C54.0584 98.3138 54.5484 99.5983 54.9484 100.603L56.8084 94.0447C58.2484 88.9934 59.2684 84.5602 59.9084 80.4554L60.0784 79.3543L61.2384 79.4219C62.6084 79.4992 63.5884 79.4992 64.4184 79.4412C65.2184 79.3736 66.0184 79.2191 67.0384 78.939L68.2184 78.6106L68.5784 79.7406C68.9884 80.9769 69.3084 81.9428 70.2384 84.1835C71.5384 87.3225 74.6184 94.18 76.6384 98.6518L78.8184 87.931C80.1384 81.3922 80.1384 80.919 80.1484 78.9197L80.1584 77.6834L81.4284 77.6931L82.5284 77.722L84.5684 77.7124C85.5784 77.6351 86.4084 77.4033 86.9484 77.2488L89.2784 76.5437L88.5284 78.7844C88.1084 80.04 88.0484 80.2332 86.4384 86.685L82.0684 104.196C81.5884 106.147 80.5384 111.382 80.2384 113.381L80.0684 114.492L78.5784 114.414C77.7084 114.366 76.9184 114.318 76.0484 114.385C75.0284 114.472 73.9884 114.656 72.9684 114.926L71.8584 115.216L70.6484 112.154C69.5384 109.344 68.5884 106.919 67.1684 103.848L63.2584 95.4356L60.0684 106.775C59.3384 109.305 58.7784 112.058 58.3384 115.216L58.1784 116.385L56.9684 116.278C55.9584 116.182 55.2184 116.143 54.1884 116.24C53.0784 116.327 51.9384 116.53 50.8984 116.79L49.6684 117.109ZM39.1784 83.9131C43.7684 93.6584 49.5284 108.465 51.4084 114.173C52.2484 113.999 53.0984 113.883 53.9384 113.816L55.9684 113.767C56.3984 110.957 56.9384 108.465 57.6084 106.147L62.6484 88.2111L69.4684 102.863C70.9184 105.992 71.9384 108.571 72.9984 111.304L73.4084 112.318C74.2084 112.154 75.0084 112.038 75.8084 111.971L77.9084 111.942C78.3384 109.479 79.1684 105.384 79.5984 103.645L83.9684 86.1248C84.7984 82.8023 85.2184 81.1315 85.5084 80.0787L84.7884 80.1559L82.6684 80.1849C82.5984 81.711 82.3584 83.2177 81.3084 88.4042L77.5884 106.765L75.9584 103.211C74.7084 100.468 69.6684 89.3701 67.8884 85.0817C67.2184 83.4398 66.8484 82.4546 66.5484 81.5661L64.6484 81.8558C63.9584 81.9138 63.1984 81.9331 62.2484 81.8945C61.5884 85.7868 60.6084 89.9786 59.2684 94.6725L55.4484 108.136L54.0284 104.891C53.3184 103.288 52.7384 101.897 51.0384 97.3672C48.3884 90.249 47.4284 87.5253 46.1084 83.2273C44.7384 83.4591 43.5284 83.6233 42.4884 83.7199C41.2184 83.8358 40.1284 83.8938 39.1784 83.9131Z" fill="#231F20"/>
<path d="M99.8185 76.9686C100.698 77.0941 101.608 77.1038 102.468 77.0362C103.278 76.9686 104.128 76.8044 104.918 76.5339C110.878 89.5825 117.928 102.757 121.688 109.604C120.108 109.488 118.488 109.575 116.928 109.711C115.258 109.846 113.138 110.029 111.598 110.454C109.678 105.509 108.188 102.544 107.498 101.134C105.778 101.221 104.048 101.269 102.238 101.424C100.368 101.578 98.4085 101.8 96.4485 102.061C95.8085 104.524 94.8185 108.243 94.2885 111.922C93.3185 111.855 89.7685 112.009 88.6885 112.396C91.1885 105.847 97.2085 86.8684 99.8185 76.9686ZM100.898 87.1872L97.5685 98.2364C98.9485 98.2171 100.318 98.1495 101.668 98.0336C103.078 97.908 104.488 97.6955 105.898 97.5313L100.898 87.1872Z" fill="#231F20"/>
<path d="M86.5381 114.463L87.4881 111.971C89.8781 105.751 95.9181 86.8008 98.5881 76.6692L98.8681 75.5971L99.9981 75.7613C100.758 75.8675 101.588 75.8965 102.358 75.8192L104.508 75.3846L105.608 75.0176L106.068 76.0414C112.088 89.2058 119.138 102.37 122.808 109.035L123.878 110.995L121.598 110.831C120.228 110.734 118.968 110.773 117.028 110.937C115.378 111.072 113.358 111.246 111.948 111.642L110.828 111.951L110.418 110.899C108.798 106.726 107.508 104.002 106.718 102.399L105.928 102.438C104.768 102.496 103.568 102.544 102.358 102.65C100.758 102.786 99.1081 102.959 97.4781 103.172C96.8581 105.528 96.0181 108.87 95.5481 112.096L95.3881 113.226L94.2081 113.149L93.7081 113.139C92.1581 113.139 89.7681 113.323 89.1281 113.545L86.5381 114.463ZM100.778 78.2821C98.2281 87.7087 93.2481 103.452 90.5981 110.831C91.5681 110.744 92.5581 110.696 93.1881 110.686C93.7281 107.441 94.5681 104.244 95.1281 102.051L95.4181 100.97L96.2581 100.854C98.2181 100.593 100.188 100.371 102.118 100.207C103.388 100.1 104.598 100.043 105.788 99.9846L107.418 99.9073L108.278 99.8687L108.788 100.921C109.498 102.361 110.768 104.949 112.388 109.035C113.818 108.764 115.438 108.629 116.798 108.513C117.878 108.416 118.758 108.368 119.568 108.349C115.798 101.443 109.628 89.795 104.208 78.0117L102.578 78.2628L100.778 78.2821ZM95.8781 99.4823L100.618 83.7391L107.788 98.5358L106.068 98.7483L104.788 98.9125C103.808 99.0381 102.798 99.1733 101.778 99.2505C100.388 99.3761 98.9781 99.434 97.5781 99.4534L95.8781 99.4823ZM101.168 90.6545L99.2681 96.9615L101.558 96.8166C102.368 96.749 103.208 96.6428 104.018 96.5365L101.168 90.6545Z" fill="#231F20"/>
<path d="M127.088 82.8698C126.798 79.7501 126.308 77.0844 125.878 75.1624C127.518 75.2686 129.138 75.1817 130.798 75.0368C132.358 74.9016 133.868 74.6795 135.368 74.3511C135.338 77.944 135.508 82.0585 135.678 84.0578L137.118 99.8976C137.238 101.308 137.418 102.766 137.598 104.176C140.888 103.896 146.378 103.433 149.408 102.534C149.318 103.722 149.668 106.552 149.828 107.219C147.288 107.248 143.988 107.325 141.158 107.557C137.628 107.856 133.558 108.445 128.978 108.976C129.048 106.369 128.948 103.529 128.628 100.071L127.088 82.8698Z" fill="#231F20"/>
<path d="M127.699 110.368L127.729 108.957C127.799 106.311 127.689 103.529 127.379 100.178L125.829 82.9667C125.599 80.4651 125.199 77.9153 124.649 75.4138L124.299 73.8201L125.969 73.9264C127.389 74.023 128.669 73.9843 130.699 73.8105C132.199 73.6753 133.649 73.4724 135.099 73.1537L136.649 72.8157L136.639 74.361C136.609 77.8767 136.779 82.0008 136.949 83.9422L138.389 99.782C138.479 100.796 138.599 101.81 138.729 102.853C141.979 102.573 146.499 102.129 149.059 101.366L150.839 100.844L150.689 102.641C150.609 103.645 150.929 106.34 151.089 106.939L151.449 108.436L149.859 108.455C147.549 108.475 144.189 108.542 141.289 108.793C139.019 108.977 136.469 109.305 133.759 109.643C132.279 109.827 130.739 110.03 129.149 110.203L127.699 110.368ZM127.439 76.4279C127.849 78.5335 128.159 80.6583 128.349 82.7542L129.899 99.9655C130.159 102.824 130.279 105.287 130.279 107.605C131.349 107.47 132.399 107.335 133.419 107.209C136.149 106.871 138.719 106.543 141.059 106.34C143.479 106.137 146.179 106.05 148.369 106.012L148.179 104.099C144.969 104.775 140.539 105.152 137.719 105.384L136.499 105.49L136.349 104.312C136.159 102.844 135.979 101.405 135.849 99.9848L134.409 84.145C134.259 82.4354 134.109 79.113 134.089 75.8291C133.039 76.0126 131.989 76.1382 130.909 76.2347C129.519 76.37 128.449 76.4279 127.439 76.4279Z" fill="#231F20"/>
<path d="M155.848 82.1069C155.558 78.9872 155.118 75.8386 154.488 72.7382C156.068 72.7962 157.648 72.7672 159.208 72.632C163.098 72.3036 165.218 71.8207 169.108 71.5019C178.758 70.6906 186.768 75.5199 187.748 86.3276C188.608 95.8412 183.178 104.408 170.408 105.48C168.638 105.635 165.148 105.635 163.788 105.751C162.878 105.828 159.898 106.127 157.558 106.562C157.568 103.326 157.478 100.081 157.188 96.8746L155.848 82.1069ZM165.768 98.362C165.878 99.5789 166.048 100.844 166.208 102.061C166.828 102.109 166.208 102.303 167.868 102.167C170.698 101.936 173.978 101.115 176.138 98.4682C179.058 94.827 178.828 88.8581 178.668 87.052C178.398 84.0772 177.408 79.3929 173.878 76.8913C171.058 74.921 168.378 75.0949 166.198 75.288C163.628 75.5102 164.458 75.4812 163.858 75.5778C163.948 76.6016 164.138 80.4263 164.298 82.0779L165.768 98.362Z" fill="#231F20"/>
<path d="M156.278 108.059L156.288 106.562C156.308 102.902 156.188 99.8592 155.928 96.981L154.598 82.2037C154.298 78.9777 153.858 75.8774 153.258 72.9702L152.948 71.4442L154.548 71.5118C156.078 71.5794 157.608 71.5408 159.108 71.4152C161.018 71.251 162.528 71.0578 163.988 70.8647C165.478 70.6618 167.028 70.459 169.018 70.2852L171.178 70.1982C181.288 70.1982 188.128 76.341 189.028 86.2312C189.488 91.4274 188.138 96.2566 185.198 99.8399C181.938 103.8 176.868 106.176 170.528 106.707C169.548 106.794 168.118 106.833 166.748 106.871C165.598 106.9 164.508 106.929 163.908 106.977C162.978 107.055 160.058 107.354 157.808 107.779L156.278 108.059ZM156.028 73.994C156.498 76.5438 156.868 79.2289 157.118 82.0008L158.448 96.7782C158.678 99.3377 158.798 102.013 158.818 105.123C161.248 104.756 163.638 104.544 163.678 104.544C164.358 104.486 165.478 104.466 166.668 104.428C168.008 104.389 169.398 104.35 170.298 104.283C175.928 103.8 180.388 101.743 183.208 98.3235C185.778 95.2039 186.918 91.099 186.498 86.4534C185.708 77.8187 179.988 72.6515 171.178 72.6515L169.238 72.7288C167.318 72.8929 165.798 73.0958 164.338 73.2889C162.848 73.4821 161.308 73.6946 159.328 73.8588C158.228 73.9457 157.118 73.994 156.028 73.994ZM166.988 103.442L166.068 103.278L165.108 103.211L164.948 102.216C164.798 101.057 164.618 99.7433 164.508 98.4684L163.028 82.1747C162.948 81.2378 162.838 79.6249 162.758 78.2147C162.688 77.1137 162.628 76.1382 162.588 75.6842L162.488 74.5638L163.638 74.3707C163.998 74.2644 164.178 74.2258 166.098 74.0616L168.208 73.9554C169.758 73.9554 172.118 74.1485 174.618 75.8967C178.418 78.6011 179.598 83.3916 179.928 86.9459C180.088 88.81 180.388 95.1846 177.128 99.2218C175.158 101.636 172.078 103.037 167.978 103.385L166.988 103.442ZM165.198 76.6018L165.288 78.0699C165.368 79.4703 165.468 81.064 165.548 81.9718L167.028 98.2656C167.108 99.1638 167.218 100.101 167.328 100.98L167.748 100.951C171.178 100.661 173.588 99.6081 175.128 97.7247C177.878 94.3056 177.488 88.3367 177.388 87.1681C177.108 84.1257 176.138 80.0402 173.118 77.896C171.648 76.8722 170.128 76.4183 168.198 76.4183L166.308 76.5149L165.198 76.6018Z" fill="#231F20"/>
<path d="M213.989 102.448C202.729 103.404 194.919 98.1691 193.879 86.7142C192.949 76.4184 198.389 68.3439 211.109 67.2719C221.959 66.3543 230.319 71.3381 231.339 82.6094C232.469 95.1364 224.149 101.588 213.989 102.448ZM211.529 70.7199C203.859 71.367 202.399 78.5143 203.089 86.1734C203.969 95.8704 208.429 99.4247 213.679 98.9901C220.089 98.4395 222.999 92.799 222.159 83.4787C221.429 75.4332 218.089 70.1694 211.529 70.7199Z" fill="#231F20"/>
<path d="M211.458 103.78C200.468 103.78 193.608 97.5892 192.628 86.8008C191.548 74.863 198.418 67.1073 211.008 66.0352C211.878 65.9579 212.748 65.929 213.588 65.929C224.548 65.929 231.658 72.1103 232.608 82.4931C233.168 88.6842 231.508 93.9577 227.818 97.7438C224.508 101.134 219.758 103.181 214.098 103.655C213.208 103.742 212.318 103.78 211.458 103.78ZM213.588 68.3822C212.818 68.3822 212.028 68.4208 211.228 68.4884C200.058 69.435 194.188 76.0317 195.158 86.598C196.018 96.1018 201.818 101.327 211.468 101.327C212.258 101.327 213.068 101.298 213.888 101.23C218.918 100.805 223.098 99.0187 225.978 96.0632C229.158 92.8083 230.578 88.1916 230.078 82.7056C229.248 73.6074 223.238 68.3822 213.588 68.3822ZM212.828 100.245C209.908 100.245 202.968 98.8835 201.828 86.2792C200.648 73.1824 206.388 69.9275 211.418 69.5122L212.458 69.4639C218.718 69.4639 222.608 74.409 223.428 83.3817C223.878 88.2882 223.308 92.2288 221.768 95.0974C220.118 98.1398 217.368 99.9072 213.798 100.216L212.828 100.245ZM212.448 71.9075L211.628 71.9365C209.538 72.12 203.138 72.6512 204.348 86.0667C205.028 93.6293 208.048 97.8017 212.818 97.8017L213.558 97.7727C216.268 97.5409 218.268 96.266 219.508 93.9673C220.838 91.5237 221.298 88.0371 220.898 83.6039C220.418 78.2627 218.558 71.9075 212.448 71.9075Z" fill="#231F20"/>
<path d="M247.509 87.7665L247.289 85.4582C246.769 80.0495 254.269 76.9781 253.699 70.9995C253.349 67.3004 250.459 65.1465 246.539 66.0351C243.159 66.7981 242.199 71.2893 242.939 71.212C245.089 70.9995 246.739 72.6415 246.899 74.4959C247.049 76.2344 245.669 78.3979 242.989 78.6393C239.369 78.9581 236.959 76.3503 236.649 73.0085C236.029 66.5953 241.619 62.5291 247.709 61.9786C253.569 61.457 260.859 63.7364 261.499 70.4104C262.319 78.9967 251.169 80.4068 251.799 87.0808L251.829 87.3802L247.509 87.7665ZM249.979 90.6351C252.429 90.4033 254.479 92.0259 254.719 94.4019C254.959 96.7682 253.269 98.7385 250.819 98.9799C248.369 99.2118 246.319 97.5795 246.079 95.2132C245.839 92.8469 247.529 90.8572 249.979 90.6351Z" fill="#231F20"/>
<path d="M250.359 100.226C247.439 100.226 245.109 98.1689 244.819 95.3293C244.519 92.3062 246.729 89.7081 249.849 89.4183C253.039 89.1286 255.669 91.2631 255.969 94.2862C256.269 97.3093 254.059 99.8977 250.939 100.197L250.359 100.226ZM250.449 91.8329L250.099 91.8522C248.359 92.0164 247.169 93.4073 247.339 95.0878C247.519 96.778 248.919 97.9274 250.699 97.7535C252.439 97.5893 253.629 96.1985 253.459 94.5083C253.299 92.934 252.059 91.8329 250.449 91.8329ZM246.369 89.0996L246.019 85.5743C245.719 82.4643 247.579 80.1366 249.369 77.8765C251.079 75.7324 252.679 73.7041 252.439 71.1253C252.199 68.5755 250.619 67.0591 248.239 67.0591L246.819 67.233C245.269 67.5807 244.409 69.0777 244.099 70.0436C246.249 70.4009 247.959 72.1877 248.149 74.3995C248.359 76.7851 246.489 79.5571 243.089 79.8565C238.959 80.2235 235.779 77.355 235.369 73.1246C234.669 65.7939 240.979 61.351 247.569 60.7618C254.249 60.163 262.049 63.0412 262.739 70.3043C263.239 75.4716 259.949 78.3112 257.059 80.803C254.779 82.7734 252.809 84.4636 253.049 86.9748L253.229 88.4911L246.369 89.0996ZM248.249 64.6059C251.909 64.6059 254.609 67.1267 254.959 70.8838C255.309 74.4285 253.219 77.0556 251.389 79.3639C249.759 81.4212 248.349 83.1887 248.549 85.3425L248.649 86.4339L250.519 86.2697C250.649 83.0534 253.049 80.9865 255.379 78.9679C258.069 76.6499 260.609 74.4671 260.229 70.5168C259.709 65.0598 254.029 63.1281 249.329 63.1281L247.819 63.1957C242.479 63.669 237.359 67.1557 237.909 72.8831C238.139 75.2688 239.799 77.6834 242.879 77.4129C244.919 77.2294 245.729 75.6165 245.639 74.5927C245.549 73.4626 244.529 72.2843 243.079 72.4292L242.929 72.4389C242.279 72.4389 241.579 72.0042 241.459 71.048C241.279 69.551 242.689 65.649 246.259 64.8377L248.249 64.6059Z" fill="#231F20"/>
<path d="M62.928 91.823L58.818 106.465C57.998 109.285 57.448 112.183 57.048 115.061C55.918 114.965 55.148 114.926 54.038 115.022C52.878 115.119 51.678 115.322 50.528 115.621C49.138 110.927 42.158 92.8951 37.168 82.6475C38.798 82.7634 40.678 82.6571 42.348 82.5123C43.908 82.377 45.608 82.0873 46.958 81.8265C48.478 86.8103 49.378 89.3794 52.198 96.9613C53.878 101.433 54.458 102.814 55.158 104.427L58.008 94.3631C59.318 89.7754 60.428 85.1683 61.138 80.6385C62.518 80.7158 63.588 80.7255 64.488 80.6482C65.398 80.5709 66.298 80.4067 67.338 80.117C67.758 81.4015 68.108 82.406 69.018 84.6468C70.838 89.0607 76.108 100.651 77.068 102.727L80.028 88.1818C81.318 81.7299 81.358 81.0828 81.368 78.9193C82.438 78.9386 83.568 79.0352 84.628 78.9483C85.688 78.8614 86.588 78.6392 87.278 78.4268C86.828 79.7403 86.758 79.9914 85.148 86.4239L80.778 103.935C80.298 105.895 79.248 111.14 78.928 113.226C77.858 113.168 76.928 113.1 75.868 113.197C74.758 113.294 73.658 113.487 72.568 113.767C71.118 110.116 70.038 107.199 68.258 103.374L62.928 91.823Z" fill="#ED2924"/>
<path d="M99.8185 76.9686C100.698 77.0941 101.608 77.1038 102.468 77.0362C103.278 76.9686 104.128 76.8044 104.918 76.5339C110.878 89.5825 117.928 102.757 121.688 109.604C120.108 109.488 118.488 109.575 116.928 109.711C115.258 109.846 113.138 110.029 111.598 110.454C109.678 105.509 108.188 102.544 107.498 101.134C105.778 101.221 104.048 101.269 102.238 101.424C100.368 101.578 98.4085 101.8 96.4485 102.061C95.8085 104.524 94.8185 108.243 94.2885 111.922C93.3185 111.855 89.7685 112.009 88.6885 112.396C91.1885 105.847 97.2085 86.8684 99.8185 76.9686ZM100.898 87.1872L97.5685 98.2364C98.9485 98.2171 100.318 98.1495 101.668 98.0336C103.078 97.908 104.488 97.6955 105.898 97.5313L100.898 87.1872Z" fill="#ED2924"/>
<path d="M127.088 82.8698C126.798 79.7501 126.308 77.0844 125.878 75.1624C127.518 75.2686 129.138 75.1817 130.798 75.0368C132.358 74.9016 133.868 74.6795 135.368 74.3511C135.338 77.944 135.508 82.0585 135.678 84.0578L137.118 99.8976C137.238 101.308 137.418 102.766 137.598 104.176C140.888 103.896 146.378 103.433 149.408 102.534C149.318 103.722 149.668 106.552 149.828 107.219C147.288 107.248 143.988 107.325 141.158 107.557C137.628 107.856 133.558 108.445 128.978 108.976C129.048 106.369 128.948 103.529 128.628 100.071L127.088 82.8698Z" fill="#ED2924"/>
<path d="M155.848 82.1069C155.558 78.9872 155.118 75.8386 154.488 72.7382C156.068 72.7962 157.648 72.7672 159.208 72.632C163.098 72.3036 165.218 71.8207 169.108 71.5019C178.758 70.6906 186.768 75.5199 187.748 86.3276C188.608 95.8412 183.178 104.408 170.408 105.48C168.638 105.635 165.148 105.635 163.788 105.751C162.878 105.828 159.898 106.127 157.558 106.562C157.568 103.326 157.478 100.081 157.188 96.8746L155.848 82.1069ZM165.768 98.362C165.878 99.5789 166.048 100.844 166.208 102.061C166.828 102.109 166.208 102.303 167.868 102.167C170.698 101.936 173.978 101.115 176.138 98.4682C179.058 94.827 178.828 88.8581 178.668 87.052C178.398 84.0772 177.408 79.3929 173.878 76.8913C171.058 74.921 168.378 75.0949 166.198 75.288C163.628 75.5102 164.458 75.4812 163.858 75.5778C163.948 76.6016 164.138 80.4263 164.298 82.0779L165.768 98.362Z" fill="#ED2924"/>
<path d="M213.989 102.448C202.729 103.404 194.919 98.1691 193.879 86.7142C192.949 76.4184 198.389 68.3439 211.109 67.2719C221.959 66.3543 230.319 71.3381 231.339 82.6094C232.469 95.1364 224.149 101.588 213.989 102.448ZM211.529 70.7199C203.859 71.367 202.399 78.5143 203.089 86.1734C203.969 95.8704 208.429 99.4247 213.679 98.9901C220.089 98.4395 222.999 92.799 222.159 83.4787C221.429 75.4332 218.089 70.1694 211.529 70.7199Z" fill="#ED2924"/>
<path d="M247.509 87.7665L247.289 85.4582C246.769 80.0495 254.269 76.9781 253.699 70.9995C253.349 67.3004 250.459 65.1465 246.539 66.0351C243.159 66.7981 242.199 71.2893 242.939 71.212C245.089 70.9995 246.739 72.6415 246.899 74.4959C247.049 76.2344 245.669 78.3979 242.989 78.6393C239.369 78.9581 236.959 76.3503 236.649 73.0085C236.029 66.5953 241.619 62.5291 247.709 61.9786C253.569 61.457 260.859 63.7364 261.499 70.4104C262.319 78.9967 251.169 80.4068 251.799 87.0808L251.829 87.3802L247.509 87.7665ZM249.979 90.6351C252.429 90.4033 254.479 92.0259 254.719 94.4019C254.959 96.7682 253.269 98.7385 250.819 98.9799C248.369 99.2118 246.319 97.5795 246.079 95.2132C245.839 92.8469 247.529 90.8572 249.979 90.6351Z" fill="#ED2924"/>
<path d="M58.9084 47.4526L54.7984 62.0948C53.9784 64.915 53.4284 67.8126 53.0284 70.6908C51.8984 70.5942 51.1284 70.5555 50.0184 70.6521C48.8484 70.7487 47.6584 70.9515 46.5084 71.2509C45.1184 66.557 38.1384 48.5247 33.1484 38.2868C34.7784 38.393 36.6584 38.2771 38.3284 38.1419C39.8884 38.0067 41.5884 37.7169 42.9384 37.4562C44.4584 42.4399 45.3584 45.0187 48.1784 52.5909C49.8584 57.0724 50.4384 58.4439 51.1384 60.0568L53.9884 49.9928C55.2984 45.405 56.4084 40.7883 57.1184 36.2682C58.4984 36.3454 59.5684 36.3551 60.4684 36.2778C61.3784 36.2006 62.2784 36.0364 63.3184 35.7466C63.7384 37.0312 64.0884 38.0357 64.9984 40.2764C66.8184 44.6903 72.0884 56.2804 73.0484 58.357L76.0084 43.8114C77.2984 37.3596 77.3484 36.7125 77.3484 34.5586C78.4184 34.5683 79.5484 34.6649 80.6084 34.578C81.6684 34.491 82.5684 34.2689 83.2584 34.0564C82.8084 35.3699 82.7384 35.6211 81.1284 42.0536L76.7584 59.5643C76.2784 61.5249 75.2284 66.7694 74.9084 68.8557C73.8384 68.8074 72.9084 68.7301 71.8484 68.8267C70.7384 68.9136 69.6384 69.1164 68.5484 69.3965C67.0984 65.7456 66.0184 62.8288 64.2384 59.0041L58.9084 47.4526Z" fill="#231F20"/>
<path d="M45.6486 72.7381L45.3086 71.5887C43.9186 66.9334 36.8986 48.8239 32.0186 38.8081L31.0986 36.9247L33.2486 37.0696C34.6486 37.1565 36.1086 37.0985 38.2286 36.9247C39.4586 36.8281 40.9786 36.5963 42.7086 36.2679L43.8486 36.0458L44.1786 37.1179C45.6786 42.0436 46.5586 44.5742 49.3886 52.1753C50.0486 53.9332 50.5386 55.2177 50.9386 56.2222L52.7986 49.6641C54.2386 44.6321 55.2586 40.1892 55.8986 36.0747L56.0686 34.9737L57.2286 35.0413C58.5886 35.1186 59.5686 35.1186 60.4086 35.0606C61.2086 34.9833 62.0486 34.8288 63.0286 34.5584L64.2086 34.2396L64.5686 35.3697C64.9786 36.5963 65.2986 37.5718 66.2286 39.8029C67.5086 42.9129 70.5986 49.7994 72.6286 54.2712L74.8086 43.56C76.0886 37.2144 76.1286 36.6156 76.1386 34.5391V33.3028L77.4186 33.3124L78.5186 33.3414L80.5586 33.3318C81.5686 33.2545 82.3986 33.0227 82.9386 32.8682L85.2686 32.1631L84.5186 34.4038C84.0986 35.6594 84.0386 35.8526 82.4286 42.3044L78.0586 59.8151C77.5786 61.7371 76.5286 66.9817 76.2286 69.0003L76.0586 70.1013L74.5286 70.0241C73.6686 69.9758 72.8986 69.9275 72.0186 69.9951C70.9986 70.082 69.9586 70.2655 68.9486 70.536L67.8386 70.8257L66.6386 67.7833C65.5286 64.9727 64.5786 62.5291 63.1486 59.4578L59.2386 51.0356L56.0486 62.3843C55.3186 64.9051 54.7586 67.6578 54.3186 70.8257L54.1586 71.9944L52.9486 71.8881C51.9386 71.7915 51.1986 71.7529 50.1686 71.8495C49.0686 71.9364 47.9286 72.1392 46.8786 72.4L45.6486 72.7381ZM35.1586 39.5421C39.7486 49.2971 45.5186 64.1035 47.3886 69.8019C48.2286 69.6281 49.0886 69.5122 49.9186 69.4446L51.9486 69.3963C52.3786 66.5857 52.9086 64.0841 53.5786 61.7758L58.6186 43.8401L65.4386 58.4919C66.8886 61.6406 67.8586 64.1035 68.9786 66.9623L69.3786 67.9475C70.1686 67.7833 70.9786 67.6674 71.7786 67.5998L73.8786 67.5708C74.3086 65.0983 75.1386 60.9934 75.5686 59.2742L79.9386 41.7635C80.7686 38.4314 81.1886 36.7508 81.4786 35.7077L80.7586 35.785L78.6386 35.814C78.5686 37.3303 78.3286 38.837 77.2886 44.0333L73.5586 62.3939L71.9286 58.8396C71.8686 58.7044 65.8786 45.5979 63.8586 40.7108C63.1886 39.0688 62.8186 38.0837 62.5186 37.2048L60.6186 37.4945C59.9186 37.5525 59.1586 37.5621 58.2186 37.5332C57.5586 41.4352 56.5786 45.6269 55.2386 50.3112L51.4186 63.7751L49.9986 60.5298C49.2786 58.8976 48.6886 57.4971 47.0086 53.0059C44.3686 45.907 43.4086 43.193 42.0786 38.866C40.7086 39.0978 39.4986 39.262 38.4586 39.3586C37.1686 39.4745 36.1086 39.5325 35.1586 39.5421Z" fill="#231F20"/>
<path d="M89.7687 41.1163C89.5187 38.3829 88.9887 35.3405 88.6787 33.5924C90.2187 33.66 91.7887 33.6213 93.4487 33.4861C95.5187 33.3026 97.2687 32.9646 98.0187 32.8004C98.0787 37.3688 98.3487 40.3822 98.8887 46.3801C101.579 46.2545 103.749 46.1193 106.029 45.9261C108.199 45.7426 110.469 45.5495 113.339 45.1631L112.769 38.9238C112.589 36.9245 112.079 33.5247 111.709 31.6414C112.769 31.651 114.959 31.6703 116.529 31.5351C118.239 31.3902 120.399 31.0136 121.149 30.8494C121.069 35.0797 121.959 44.9313 122.399 49.7509C122.929 55.6522 123.389 60.6745 124.259 64.6828C122.679 64.6248 121.109 64.6538 119.589 64.7794C117.929 64.9242 116.269 65.1657 114.669 65.4941C114.759 64.2578 114.889 62.3261 114.569 58.7622L113.709 49.3066C111.529 49.3935 109.059 49.548 106.329 49.7799C103.699 50.0117 101.089 50.2821 99.2787 50.5236L100.209 60.8098C100.399 62.867 100.779 65.3879 101.049 66.6434C100.129 66.6145 98.2487 66.5758 96.4287 66.7304C95.3187 66.827 93.1987 67.107 91.7087 67.4258C91.7387 64.9725 91.7387 62.7125 91.3687 58.6173L89.7687 41.1163Z" fill="#231F20"/>
<path d="M90.4082 68.9619L90.4282 67.4166C90.4582 64.9247 90.4582 62.6936 90.0882 58.724L88.4982 41.2133C88.2682 38.6924 87.8082 35.9205 87.4282 33.786L87.1582 32.2889L88.7382 32.3565C90.2282 32.4241 91.7282 32.3855 93.3382 32.2503C95.3782 32.0764 97.0982 31.7384 97.7382 31.5935L99.2582 31.2555L99.2882 32.7622C99.3382 36.9829 99.5782 39.8708 100.048 45.0767C102.258 44.9608 104.068 44.8449 105.918 44.6807C107.798 44.5261 109.698 44.3619 111.968 44.0722L111.508 39.0015C111.328 36.9732 110.808 33.6025 110.458 31.8446L110.168 30.3766L111.718 30.3862L112.748 30.3959C114.298 30.3959 115.538 30.3572 116.418 30.28C118.048 30.1448 120.148 29.7777 120.868 29.6232L122.448 29.2852L122.418 30.8402C122.338 35.0609 123.268 45.2602 123.668 49.6161C124.198 55.4691 124.658 60.4722 125.508 64.3935L125.848 65.9388L124.218 65.8712C122.688 65.8133 121.158 65.8422 119.708 65.9678C118.088 66.103 116.478 66.3348 114.948 66.6535L113.298 66.9916L113.418 65.369C113.498 64.2486 113.638 62.3942 113.318 58.8302L112.568 50.5433C110.728 50.6399 108.678 50.7751 106.458 50.9683C104.288 51.1518 102.248 51.3546 100.668 51.5478L101.488 60.675C101.678 62.6936 102.058 65.1565 102.308 66.3638L102.628 67.8705L101.028 67.8319L99.5282 67.8029C98.4182 67.8029 97.4282 67.8415 96.5582 67.9188C95.5682 67.9961 93.5082 68.2568 92.0082 68.5852L90.4082 68.9619ZM90.1782 34.8484C90.4982 36.7511 90.8382 38.9532 91.0182 41.0105L92.6082 58.5212C92.9082 61.805 92.9682 63.9202 92.9582 65.9581C94.1582 65.7553 95.4382 65.6008 96.2982 65.5235C97.2382 65.4462 98.3182 65.3979 99.4882 65.3979H99.5082C99.2882 64.0747 99.0582 62.3845 98.9382 60.9261L97.8982 49.4809L99.0782 49.3167C100.808 49.0752 103.398 48.8048 106.208 48.5633C108.958 48.3315 111.468 48.1673 113.648 48.0804L114.858 48.0321L115.818 58.6564C116.028 61.042 116.058 62.6839 116.008 63.9878C117.138 63.8043 118.298 63.6498 119.458 63.5532C120.508 63.4663 121.558 63.418 122.698 63.418C121.998 59.6319 121.578 55.0731 121.118 49.8962C120.718 45.5692 119.948 37.1471 119.858 32.3179C118.878 32.4821 117.658 32.6559 116.618 32.7429C115.748 32.8201 114.598 32.8588 113.188 32.8684C113.508 34.7325 113.868 37.1568 114.008 38.818L114.678 46.2163L113.488 46.3805C110.608 46.7669 108.348 46.96 106.158 47.1436C103.908 47.3271 101.768 47.4719 98.9482 47.5975L97.7282 47.6651L97.6282 46.4868C97.1382 41.107 96.8682 38.1226 96.7782 34.2786C95.9082 34.4234 94.7982 34.5876 93.5582 34.6939C92.3982 34.7904 91.2982 34.8387 90.1982 34.8387H90.1782V34.8484Z" fill="#231F20"/>
<path d="M130.958 36.4998C130.758 34.3074 130.408 32.1246 129.918 30.1059C134.328 29.9224 138.528 29.7679 141.668 29.5071C144.448 29.2753 147.058 28.9566 150.568 28.3674C150.488 29.1111 150.718 32.2791 150.988 33.0518C147.598 32.7427 142.808 33.1001 139.468 33.3898C139.528 35.1476 139.628 36.8668 139.788 38.615L140.248 43.5794C144.338 43.2414 147.608 42.9613 151.458 42.092C151.378 42.884 151.708 46.0037 151.878 46.7281C148.098 46.6508 145.218 46.9019 140.578 47.2883L141.458 56.9853C141.528 57.7193 141.648 58.3954 141.758 59.0715C144.288 58.859 149.628 58.3665 153.048 57.3813C152.968 58.2216 153.248 61.3413 153.488 62.2105C150.228 62.1815 145.528 62.4906 142.048 62.7804C138.818 63.0508 135.558 63.5241 132.738 63.9587C132.978 61.5344 132.758 56.8404 132.518 54.1554L130.958 36.4998Z" fill="#231F20"/>
<path d="M131.319 65.4265L131.479 63.8522C131.709 61.5245 131.479 56.8401 131.249 54.271L129.699 36.6058C129.509 34.423 129.159 32.3271 128.699 30.3858L128.349 28.9467L130.539 28.8597C134.699 28.6955 138.629 28.541 141.579 28.2995C144.479 28.0581 147.099 27.7104 150.369 27.1695L152.029 26.8894L151.839 28.5024L152.199 32.6458L152.829 34.4423L150.879 34.2684C150.059 34.1912 149.099 34.1525 147.999 34.1525C145.659 34.1525 143.109 34.3167 140.799 34.5002C140.859 35.8621 140.939 37.1756 141.069 38.4988L141.409 42.2559C144.919 41.9565 147.829 41.6571 151.179 40.9038L152.899 40.5078L152.719 42.2173L153.119 46.4477L153.469 47.9737L151.859 47.9447C148.509 47.8868 145.859 48.08 141.959 48.3987L142.729 56.8788L142.829 57.748C147.219 57.3424 150.529 56.8208 152.689 56.2027L154.479 55.6908L154.309 57.4873C154.239 58.1923 154.519 61.1574 154.719 61.9011L155.129 63.4368L153.169 63.4272C150.499 63.4272 146.389 63.6397 142.159 63.997C138.969 64.2675 135.709 64.7407 132.949 65.1657L131.319 65.4265ZM131.479 31.2647C131.809 32.8969 132.059 34.6161 132.219 36.3933L133.769 54.0489C133.959 56.1061 134.159 59.8149 134.079 62.5193C136.519 62.1619 139.239 61.7949 141.929 61.5631C143.379 61.4375 148.099 61.0609 151.999 60.9933L151.809 58.9553C149.359 59.4962 146.019 59.9405 141.859 60.2978L140.689 60.3944L140.499 59.2741C140.379 58.5787 140.259 57.8736 140.199 57.0913L139.209 46.1676L140.469 46.0614C144.569 45.7233 147.269 45.4915 150.409 45.4818L150.229 43.5985C146.939 44.2359 143.999 44.487 140.379 44.7864L139.119 44.8927L138.979 43.6757L138.529 38.7113C138.369 36.9728 138.259 35.2343 138.199 33.4088L138.169 32.2498L139.359 32.1532C142.029 31.9214 145.139 31.6993 147.989 31.6993L149.469 31.7283L149.309 29.8062C146.619 30.2312 144.299 30.5113 141.779 30.7238C138.979 30.9556 135.349 31.1101 131.479 31.2647Z" fill="#231F20"/>
<path d="M178.908 43.3089L187.818 54.5899C188.738 55.7489 190.778 57.98 191.848 58.6754L191.728 58.9748C189.988 58.8782 188.218 58.9748 186.448 59.1293C184.278 59.3129 183.078 59.5157 181.168 59.873C180.928 59.4481 179.888 57.5647 177.778 54.9955L169.978 45.2888L169.768 45.2116L169.738 45.511C170.148 50.0891 170.448 52.7741 170.878 56.367C171.058 57.8255 171.188 59.2839 171.518 60.6844C170.078 60.6071 168.458 60.6554 166.998 60.7713C165.688 60.8775 163.678 61.1962 162.428 61.457C162.478 56.9272 162.018 52.3491 161.118 42.5459C160.438 34.993 160.028 30.4535 159.358 27.6139C161.598 27.6236 163.628 27.5463 164.888 27.4401C168.008 27.1793 171.168 26.6191 174.298 26.3584C176.118 26.2038 185.298 25.4311 186.088 34.1044C186.638 39.9091 181.758 42.7197 178.908 43.3089ZM169.488 42.5362L171.008 42.4589C172.878 42.3044 178.078 41.8601 177.488 35.3793C176.978 29.8257 173.278 29.845 170.398 30.0865L168.488 30.3473L169.488 42.5362Z" fill="#231F20"/>
<path d="M161.169 62.9637L161.189 61.4377C161.229 57.4198 160.859 53.4019 160.129 45.4047L159.889 42.6521C159.209 35.1765 158.799 30.6563 158.149 27.8844L157.799 26.3873L159.729 26.397C161.659 26.397 163.559 26.3294 164.799 26.2231C166.339 26.0879 167.919 25.8851 169.449 25.6823C170.999 25.4794 172.629 25.267 174.219 25.1317C174.589 25.1028 175.289 25.0352 176.179 25.0352C182.779 25.0352 186.859 28.2997 187.379 33.9885C187.859 39.3199 184.299 42.5845 181.009 43.9367L188.829 53.8462C189.759 55.0245 191.679 57.0818 192.549 57.6516L193.409 58.2021L192.559 60.2401L191.649 60.1918C189.869 60.0952 187.929 60.2208 186.569 60.3367C184.529 60.5105 183.379 60.694 181.429 61.061L180.519 61.2349L180.069 60.4525C179.189 58.8879 178.099 57.3329 176.799 55.7586L171.359 48.9784C171.619 51.6248 171.849 53.6917 172.149 56.2222L172.249 57.0625C172.389 58.2408 172.519 59.3418 172.769 60.4043L173.139 61.9882L171.459 61.9013C170.099 61.824 168.549 61.8723 167.119 61.9882C165.869 62.0848 163.889 62.4036 162.699 62.645L161.169 62.9637ZM160.929 28.8309C161.449 31.7671 161.829 36.0264 162.409 42.4396L162.659 45.1923C163.309 52.3009 163.669 56.2994 163.719 59.9793C164.789 59.7958 165.999 59.6316 166.909 59.5543C167.919 59.4674 168.989 59.4191 170.009 59.4191L169.739 57.3425L169.639 56.5119C169.219 52.919 168.919 50.2533 168.499 45.6172L168.799 44.4389L169.149 44.0429L169.819 43.985L170.829 44.3713L171.009 44.5548L178.809 54.2518C179.979 55.691 181.009 57.1107 181.859 58.5112C183.409 58.2311 184.549 58.0669 186.359 57.9124C187.099 57.8544 188.009 57.7772 188.969 57.7482C188.089 56.8306 187.259 55.8841 186.839 55.3433L176.709 42.5169L178.669 42.1209C180.549 41.7249 185.359 39.5518 184.869 34.2203C184.469 29.7581 181.549 27.4981 176.199 27.4981C175.419 27.4981 174.799 27.556 174.459 27.5753C172.919 27.7105 171.339 27.9134 169.809 28.1162C168.259 28.3287 166.639 28.5315 165.049 28.6667C163.979 28.7536 162.499 28.8116 160.929 28.8309ZM169.659 43.7628L168.309 43.7145L167.139 29.4008L168.189 29.1496L170.229 28.8599L171.969 28.773C176.079 28.773 178.369 30.9558 178.759 35.2634C179.219 40.3824 176.659 43.2123 171.129 43.6759L169.659 43.7628ZM169.839 31.3518L170.649 41.2516L170.899 41.2227C173.919 40.9715 176.649 40.0926 176.229 35.4759C175.909 31.9313 174.299 31.2069 171.959 31.2069L170.509 31.2841L169.839 31.3518Z" fill="#231F20"/>
<path d="M196.608 30.9559C196.408 28.7634 196.058 26.5806 195.568 24.562C199.978 24.3785 204.178 24.224 207.318 23.9632C210.088 23.7314 212.708 23.4126 216.218 22.8235C216.128 23.5672 216.358 26.7351 216.638 27.5078C213.248 27.1987 208.458 27.5561 205.118 27.8459C205.178 29.6037 205.278 31.3132 205.438 33.0711L205.898 38.0355C209.988 37.6974 213.258 37.4173 217.108 36.5481C217.028 37.3401 217.358 40.4597 217.518 41.1841C213.748 41.1069 210.868 41.3483 206.228 41.7443L207.108 51.4414C207.178 52.1754 207.298 52.8515 207.408 53.5276C209.938 53.3151 215.278 52.8225 218.698 51.8374C218.618 52.6776 218.898 55.7973 219.138 56.6666C215.878 56.6376 211.178 56.9467 207.698 57.2364C204.468 57.5068 201.208 57.9801 198.388 58.4147C198.628 55.9905 198.408 51.2965 198.158 48.6114L196.608 30.9559Z" fill="#231F20"/>
<path d="M196.959 59.8735L197.119 58.2992C197.349 55.9618 197.119 51.2872 196.889 48.718L195.339 31.0528C195.139 28.87 194.799 26.7741 194.329 24.8328L193.979 23.3937L196.279 23.3067C200.389 23.1425 204.289 22.988 207.209 22.7466C210.119 22.5051 212.739 22.1574 215.999 21.6165L217.659 21.3364L217.479 22.9494L217.829 27.0928L218.469 28.8893L216.519 28.7155C215.699 28.6382 214.729 28.5996 213.629 28.5996C211.279 28.5996 208.659 28.7734 206.429 28.9473C206.499 30.2898 206.579 31.613 206.709 32.9555L207.049 36.7126C210.539 36.4132 213.459 36.1138 216.819 35.3604L218.539 34.9644L218.359 36.674L218.759 40.914L219.109 42.4304L217.499 42.4014C214.149 42.3338 211.509 42.527 207.609 42.8457L208.379 51.3258L208.479 52.195C212.869 51.7991 216.179 51.2775 218.339 50.6594L220.119 50.1475L219.959 51.9343C219.899 52.649 220.169 55.6238 220.369 56.3578L220.779 57.9032L218.819 57.8839C214.829 57.8839 209.389 58.3282 207.809 58.4537C204.599 58.7241 201.349 59.1974 198.599 59.6224L196.959 59.8735ZM197.119 25.7213C197.459 27.3633 197.699 29.0728 197.869 30.85L199.419 48.5055C199.609 50.5531 199.809 54.2619 199.729 56.976C202.159 56.6186 204.869 56.2516 207.579 56.0198C209.029 55.8942 213.729 55.5176 217.649 55.4499L217.459 53.412C215.009 53.9529 211.669 54.3972 207.509 54.7545L206.329 54.8511L206.139 53.6342C206.029 52.9774 205.919 52.2916 205.849 51.5576L204.859 40.6243L206.119 40.518C210.219 40.18 212.909 39.9482 216.059 39.9385L215.879 38.0551C212.589 38.6926 209.629 38.9437 206.009 39.2528L204.739 39.359L204.179 33.168C204.019 31.4101 203.909 29.6716 203.849 27.8655L203.819 26.7162L205.009 26.6099C207.509 26.3974 210.749 26.156 213.629 26.156L215.119 26.185L214.959 24.2726C212.279 24.6976 209.959 24.9776 207.429 25.1901C204.619 25.4219 200.989 25.5668 197.119 25.7213Z" fill="#231F20"/>
<path d="M252.849 26.9381C251.559 23.3162 248.469 22.4953 245.859 22.7077C244.849 22.7947 240.159 23.2872 240.539 27.4307C240.819 30.5021 243.169 31.1878 250.899 33.4382C252.409 33.9018 254.539 34.8967 256.089 36.78C257.399 38.3351 257.919 40.2667 258.099 42.1598C258.669 48.4957 254.409 53.6823 245.679 54.4163C240.589 54.8509 237.519 53.5857 235.819 52.842C236.249 50.8427 236.429 47.723 236.269 46.0231L237.539 45.9169C238.739 50.2439 242.699 51.229 245.729 50.9779C249.969 50.6206 251.569 48.0707 251.339 45.5885C251.099 42.8648 249.249 42.2274 242.859 40.1605C238.099 38.6055 234.729 36.3261 234.249 30.9657C233.639 24.2338 237.949 20.042 245.569 19.3949C250.369 18.9893 253.059 20.0903 255.119 20.9403C254.309 22.6788 253.959 25.6053 253.969 26.8415L252.849 26.9381Z" fill="#231F20"/>
<path d="M243.649 55.7297C239.329 55.7297 236.609 54.532 235.289 53.9622L234.359 53.5565L234.569 52.6003C234.989 50.6397 235.139 47.6262 234.999 46.1292L234.889 44.9122L238.469 44.6128L238.739 45.598C239.759 49.2489 242.989 49.7897 244.819 49.7897L245.599 49.7608C248.609 49.5096 250.269 47.9836 250.069 45.6946C249.899 43.8595 248.859 43.3959 242.449 41.3193C238.089 39.8899 233.559 37.5622 232.969 31.0621C232.299 23.712 236.969 18.8925 245.429 18.1777L247.529 18.0908C251.419 18.0908 253.829 19.0953 255.599 19.8293L256.779 20.3219L256.259 21.452C255.549 22.9587 255.209 25.721 255.219 26.8317L255.229 27.9617L251.969 28.2418L251.649 27.3339C250.839 25.0545 249.149 23.8955 246.629 23.8955L245.949 23.9245C243.929 24.0984 241.559 24.8324 241.789 27.3243C241.979 29.4201 243.279 29.9417 251.249 32.2597C252.629 32.675 255.179 33.7085 257.069 36.0168C258.369 37.5622 259.119 39.5422 259.349 42.0437C259.669 45.6173 258.619 48.7853 256.299 51.2095C253.889 53.7111 250.259 55.2371 245.779 55.6234L243.649 55.7297ZM237.239 52.1077C238.589 52.6486 240.659 53.2861 243.659 53.2861L245.569 53.2088C249.409 52.8804 252.489 51.6248 254.449 49.5676C256.269 47.6649 257.099 45.144 256.839 42.2755C256.659 40.2762 256.099 38.7308 255.109 37.5622C253.629 35.7561 251.599 34.9447 250.519 34.6164C242.599 32.3177 239.629 31.4484 239.279 27.5561C238.979 24.1853 241.459 21.8673 245.749 21.5002L246.649 21.4616C249.349 21.4616 251.519 22.4854 252.919 24.3688C253.049 23.4995 253.239 22.524 253.519 21.6451C252.049 21.0849 250.209 20.5537 247.559 20.5537L245.689 20.631C238.699 21.2202 234.989 24.958 235.529 30.8689C235.959 35.6595 238.939 37.5912 243.289 39.0206C249.659 41.0778 252.289 41.9278 252.619 45.5014C252.889 48.5245 250.909 51.7794 245.849 52.2043L244.849 52.2526C241.689 52.2526 239.119 51.026 237.579 48.8818C237.499 49.9732 237.389 51.1129 237.239 52.1077Z" fill="#231F20"/>
<path d="M224.878 27.6625C225.708 27.6625 226.408 27.112 226.598 27.083C227.148 27.0058 227.238 30.4152 224.478 31.5066L225.088 32.6752C228.738 31.4679 229.568 28.8602 229.548 26.378C229.528 23.8281 227.998 21.5294 225.148 21.5198C223.238 21.5198 221.858 22.9009 221.858 24.6974C221.848 26.4842 223.018 27.6625 224.878 27.6625Z" fill="#231F20"/>
<path d="M224.448 34.1819L222.738 30.8691L224.008 30.3668C224.828 30.0384 225.258 29.401 225.468 28.8311L224.878 28.8794C223.618 28.8794 222.548 28.4738 221.758 27.7011C220.988 26.9381 220.578 25.8853 220.588 24.678C220.588 22.1765 222.558 20.2834 225.138 20.2834C228.458 20.2931 230.788 22.7753 230.818 26.3489C230.848 30.1254 229.058 32.6365 225.498 33.8149L224.448 34.1819ZM226.618 25.8563C227.208 25.8563 227.898 26.2137 228.108 27.2375L228.168 27.788L228.278 26.3876C228.268 24.5718 227.288 22.756 225.138 22.7463C223.958 22.7463 223.118 23.5576 223.118 24.6973L223.568 26.0012L224.878 26.4455L225.698 26.1558L226.418 25.8853L226.618 25.8563Z" fill="#231F20"/>
<path d="M58.9084 47.4526L54.7984 62.0948C53.9784 64.915 53.4284 67.8126 53.0284 70.6908C51.8984 70.5942 51.1284 70.5555 50.0184 70.6521C48.8484 70.7487 47.6584 70.9515 46.5084 71.2509C45.1184 66.557 38.1384 48.5247 33.1484 38.2868C34.7784 38.393 36.6584 38.2771 38.3284 38.1419C39.8884 38.0067 41.5884 37.7169 42.9384 37.4562C44.4584 42.4399 45.3584 45.0187 48.1784 52.5909C49.8584 57.0724 50.4384 58.4439 51.1384 60.0568L53.9884 49.9928C55.2984 45.405 56.4084 40.7883 57.1184 36.2682C58.4984 36.3454 59.5684 36.3551 60.4684 36.2778C61.3784 36.2006 62.2784 36.0364 63.3184 35.7466C63.7384 37.0312 64.0884 38.0357 64.9984 40.2764C66.8184 44.6903 72.0884 56.2804 73.0484 58.357L76.0084 43.8114C77.2984 37.3596 77.3484 36.7125 77.3484 34.5586C78.4184 34.5683 79.5484 34.6649 80.6084 34.578C81.6684 34.491 82.5684 34.2689 83.2584 34.0564C82.8084 35.3699 82.7384 35.6211 81.1284 42.0536L76.7584 59.5643C76.2784 61.5249 75.2284 66.7694 74.9084 68.8557C73.8384 68.8074 72.9084 68.7301 71.8484 68.8267C70.7384 68.9136 69.6384 69.1164 68.5484 69.3965C67.0984 65.7456 66.0184 62.8288 64.2384 59.0041L58.9084 47.4526Z" fill="#00ADEE"/>
<path d="M89.7687 41.1163C89.5187 38.3829 88.9887 35.3405 88.6787 33.5924C90.2187 33.66 91.7887 33.6213 93.4487 33.4861C95.5187 33.3026 97.2687 32.9646 98.0187 32.8004C98.0787 37.3688 98.3487 40.3822 98.8887 46.3801C101.579 46.2545 103.749 46.1193 106.029 45.9261C108.199 45.7426 110.469 45.5495 113.339 45.1631L112.769 38.9238C112.589 36.9245 112.079 33.5247 111.709 31.6414C112.769 31.651 114.959 31.6703 116.529 31.5351C118.239 31.3902 120.399 31.0136 121.149 30.8494C121.069 35.0797 121.959 44.9313 122.399 49.7509C122.929 55.6522 123.389 60.6745 124.259 64.6828C122.679 64.6248 121.109 64.6538 119.589 64.7794C117.929 64.9242 116.269 65.1657 114.669 65.4941C114.759 64.2578 114.889 62.3261 114.569 58.7622L113.709 49.3066C111.529 49.3935 109.059 49.548 106.329 49.7799C103.699 50.0117 101.089 50.2821 99.2787 50.5236L100.209 60.8098C100.399 62.867 100.779 65.3879 101.049 66.6434C100.129 66.6145 98.2487 66.5758 96.4287 66.7304C95.3187 66.827 93.1987 67.107 91.7087 67.4258C91.7387 64.9725 91.7387 62.7125 91.3687 58.6173L89.7687 41.1163Z" fill="#00ADEE"/>
<path d="M130.958 36.4998C130.758 34.3074 130.408 32.1246 129.918 30.1059C134.328 29.9224 138.528 29.7679 141.668 29.5071C144.448 29.2753 147.058 28.9566 150.568 28.3674C150.488 29.1111 150.718 32.2791 150.988 33.0518C147.598 32.7427 142.808 33.1001 139.468 33.3898C139.528 35.1476 139.628 36.8668 139.788 38.615L140.248 43.5794C144.338 43.2414 147.608 42.9613 151.458 42.092C151.378 42.884 151.708 46.0037 151.878 46.7281C148.098 46.6508 145.218 46.9019 140.578 47.2883L141.458 56.9853C141.528 57.7193 141.648 58.3954 141.758 59.0715C144.288 58.859 149.628 58.3665 153.048 57.3813C152.968 58.2216 153.248 61.3413 153.488 62.2105C150.228 62.1815 145.528 62.4906 142.048 62.7804C138.818 63.0508 135.558 63.5241 132.738 63.9587C132.978 61.5344 132.758 56.8404 132.518 54.1554L130.958 36.4998Z" fill="#00ADEE"/>
<path d="M178.908 43.3089L187.818 54.5899C188.738 55.7489 190.778 57.98 191.848 58.6754L191.728 58.9748C189.988 58.8782 188.218 58.9748 186.448 59.1293C184.278 59.3129 183.078 59.5157 181.168 59.873C180.928 59.4481 179.888 57.5647 177.778 54.9955L169.978 45.2888L169.768 45.2116L169.738 45.511C170.148 50.0891 170.448 52.7741 170.878 56.367C171.058 57.8255 171.188 59.2839 171.518 60.6844C170.078 60.6071 168.458 60.6554 166.998 60.7713C165.688 60.8775 163.678 61.1962 162.428 61.457C162.478 56.9272 162.018 52.3491 161.118 42.5459C160.438 34.993 160.028 30.4535 159.358 27.6139C161.598 27.6236 163.628 27.5463 164.888 27.4401C168.008 27.1793 171.168 26.6191 174.298 26.3584C176.118 26.2038 185.298 25.4311 186.088 34.1044C186.638 39.9091 181.758 42.7197 178.908 43.3089ZM169.488 42.5362L171.008 42.4589C172.878 42.3044 178.078 41.8601 177.488 35.3793C176.978 29.8257 173.278 29.845 170.398 30.0865L168.488 30.3473L169.488 42.5362Z" fill="#00ADEE"/>
<path d="M196.608 30.9559C196.408 28.7634 196.058 26.5806 195.568 24.562C199.978 24.3785 204.178 24.224 207.318 23.9632C210.088 23.7314 212.708 23.4126 216.218 22.8235C216.128 23.5672 216.358 26.7351 216.638 27.5078C213.248 27.1987 208.458 27.5561 205.118 27.8459C205.178 29.6037 205.278 31.3132 205.438 33.0711L205.898 38.0355C209.988 37.6974 213.258 37.4173 217.108 36.5481C217.028 37.3401 217.358 40.4597 217.518 41.1841C213.748 41.1069 210.868 41.3483 206.228 41.7443L207.108 51.4414C207.178 52.1754 207.298 52.8515 207.408 53.5276C209.938 53.3151 215.278 52.8225 218.698 51.8374C218.618 52.6776 218.898 55.7973 219.138 56.6666C215.878 56.6376 211.178 56.9467 207.698 57.2364C204.468 57.5068 201.208 57.9801 198.388 58.4147C198.628 55.9905 198.408 51.2965 198.158 48.6114L196.608 30.9559Z" fill="#00ADEE"/>
<path d="M252.849 26.9381C251.559 23.3162 248.469 22.4953 245.859 22.7077C244.849 22.7947 240.159 23.2872 240.539 27.4307C240.819 30.5021 243.169 31.1878 250.899 33.4382C252.409 33.9018 254.539 34.8967 256.089 36.78C257.399 38.3351 257.919 40.2667 258.099 42.1598C258.669 48.4957 254.409 53.6823 245.679 54.4163C240.589 54.8509 237.519 53.5857 235.819 52.842C236.249 50.8427 236.429 47.723 236.269 46.0231L237.539 45.9169C238.739 50.2439 242.699 51.229 245.729 50.9779C249.969 50.6206 251.569 48.0707 251.339 45.5885C251.099 42.8648 249.249 42.2274 242.859 40.1605C238.099 38.6055 234.729 36.3261 234.249 30.9657C233.639 24.2338 237.949 20.042 245.569 19.3949C250.369 18.9893 253.059 20.0903 255.119 20.9403C254.309 22.6788 253.959 25.6053 253.969 26.8415L252.849 26.9381Z" fill="#00ADEE"/>
<path d="M224.878 27.6625C225.708 27.6625 226.408 27.112 226.598 27.083C227.148 27.0058 227.238 30.4152 224.478 31.5066L225.088 32.6752C228.738 31.4679 229.568 28.8602 229.548 26.378C229.528 23.8281 227.998 21.5294 225.148 21.5198C223.238 21.5198 221.858 22.9009 221.858 24.6974C221.848 26.4842 223.018 27.6625 224.878 27.6625Z" fill="#00ADEE"/>
<path d="M259.858 89.2638L260.518 88.1048L261.578 87.2838L262.938 86.8975L264.348 87.0423L265.538 87.6798L266.398 88.7036L266.798 90.0075L266.638 91.3693L265.978 92.5186L264.918 93.33L263.558 93.7163L262.148 93.5714L260.958 92.9533L260.098 91.9295L259.698 90.6159L259.858 89.2638ZM266.038 88.8871L265.278 87.9889L264.218 87.419L262.968 87.2838L261.768 87.6218L260.828 88.3462L260.238 89.37L260.098 90.5773L260.448 91.7363L261.218 92.6442L262.278 93.2044L263.518 93.3396L264.718 93.0016L265.668 92.2675L266.248 91.2437L266.388 90.0461L266.038 88.8871ZM264.898 92.0647L264.638 92.0744L264.368 92.1033L264.108 92.1516L263.418 91.1665L263.068 90.6449L262.928 90.4614L262.868 90.4324L262.838 90.4614L262.848 90.5966L262.898 91.0602L262.958 91.5528L263.018 91.9778L263.058 92.2386H262.828L262.588 92.2579L262.358 92.2869L262.128 92.3255L262.118 92.142L262.098 91.746L262.058 91.1085L261.988 90.191L261.908 89.4473L261.848 88.945L261.798 88.6167L261.758 88.3945L262.158 88.3752L262.538 88.3462L262.878 88.3076L263.358 88.2593L264.238 88.4525L264.608 89.1189L264.388 89.824L263.738 90.22L265.178 92.0454L264.898 92.0647ZM263.428 88.7422L262.988 88.5973L262.688 88.6263L262.718 89.1092L262.748 89.5052L262.808 90.2103L263.058 90.1717L263.368 90.0558L263.608 89.7757L263.668 89.2734L263.428 88.7422Z" fill="#ED2924"/>
</svg>


